<svg width="455" height="105" viewBox="0 0 455 105" fill="none" xmlns="http://www.w3.org/2000/svg">
<path d="M151.792 68V4.74318H166.136V68H151.792ZM212.222 67.1725C210.506 67.6016 208.33 67.9694 205.694 68.2758C203.058 68.5823 200.576 68.7355 198.247 68.7355C191.32 68.7355 186.202 67.7855 182.892 65.8853C179.643 63.9239 177.468 60.7365 176.364 56.3232C175.322 51.91 174.801 45.2594 174.801 36.3716C174.801 27.6064 175.353 21.0171 176.456 16.6038C177.559 12.1293 179.735 8.91126 182.984 6.94981C186.294 4.98836 191.382 4.00763 198.247 4.00763C200.637 4.00763 203.089 4.16087 205.602 4.46735C208.176 4.77382 210.291 5.17224 211.946 5.66261V16.6958C206.736 16.1441 203.273 15.8683 201.557 15.8683C197.389 15.8683 194.508 16.2974 192.914 17.1555C191.382 17.9523 190.401 19.638 189.972 22.2124C189.543 24.7255 189.328 29.4452 189.328 36.3716C189.328 43.298 189.543 48.0484 189.972 50.6228C190.401 53.1359 191.382 54.8215 192.914 55.6796C194.508 56.4765 197.389 56.8749 201.557 56.8749C205.112 56.8749 208.667 56.5991 212.222 56.0474V67.1725ZM230.264 68V17.0635H215.37V4.74318H259.594V17.0635H244.607V68H230.264ZM265.28 4.74318H290.932C296.019 4.74318 299.85 5.57066 302.425 7.22564C304.999 8.81932 306.715 11.1179 307.573 14.1214C308.493 17.1248 308.953 21.1397 308.953 26.1659C308.953 30.9469 308.523 34.8392 307.665 37.8427C306.869 40.8462 305.152 43.2367 302.517 45.0142C299.881 46.7918 295.989 47.6806 290.84 47.6806H279.531V68H265.28V4.74318ZM285.967 35.8199C288.664 35.8199 290.595 35.6054 291.759 35.1763C292.924 34.686 293.69 33.8278 294.058 32.6019C294.426 31.3147 294.609 29.1694 294.609 26.1659C294.609 23.1624 294.426 21.0477 294.058 19.8218C293.69 18.5346 292.924 17.6765 291.759 17.2474C290.595 16.8184 288.664 16.6038 285.967 16.6038H279.531V35.8199H285.967ZM351.925 67.1725C350.209 67.6016 348.033 67.9694 345.397 68.2758C342.761 68.5823 340.279 68.7355 337.95 68.7355C331.023 68.7355 325.905 67.7855 322.595 65.8853C319.347 63.9239 317.171 60.7365 316.067 56.3232C315.025 51.91 314.504 45.2594 314.504 36.3716C314.504 27.6064 315.056 21.0171 316.159 16.6038C317.263 12.1293 319.439 8.91126 322.687 6.94981C325.997 4.98836 331.085 4.00763 337.95 4.00763C340.34 4.00763 342.792 4.16087 345.305 4.46735C347.88 4.77382 349.994 5.17224 351.649 5.66261V16.6958C346.439 16.1441 342.976 15.8683 341.26 15.8683C337.092 15.8683 334.211 16.2974 332.617 17.1555C331.085 17.9523 330.104 19.638 329.675 22.2124C329.246 24.7255 329.031 29.4452 329.031 36.3716C329.031 43.298 329.246 48.0484 329.675 50.6228C330.104 53.1359 331.085 54.8215 332.617 55.6796C334.211 56.4765 337.092 56.8749 341.26 56.8749C344.815 56.8749 348.37 56.5991 351.925 56.0474V67.1725ZM371.99 56.2313H398.746V68H358.107V59.5412C358.107 53.9634 358.26 49.8566 358.567 47.2209C358.934 44.5239 359.701 42.3172 360.865 40.601C362.091 38.8847 364.114 37.383 366.933 36.0958L376.312 31.6825L379.07 30.3953C380.664 29.6597 381.798 29.0161 382.472 28.4645C383.207 27.9128 383.698 27.2079 383.943 26.3498C384.249 25.4304 384.403 24.1432 384.403 22.4882C384.403 20.3428 384.127 18.8105 383.575 17.891C383.023 16.9716 382.104 16.3893 380.817 16.1441C379.53 15.8376 377.446 15.6844 374.565 15.6844C370.764 15.6844 365.616 16.0522 359.118 16.7877V5.84649C361.693 5.35613 364.788 4.92706 368.405 4.55929C372.082 4.19152 375.453 4.00763 378.518 4.00763C382.809 4.00763 386.364 4.40605 389.184 5.20289C392.065 5.99973 394.363 7.68535 396.079 10.2598C397.857 12.7729 398.746 16.5425 398.746 21.5688C398.746 27.024 397.98 31.0695 396.447 33.7052C394.976 36.2796 392.647 38.2717 389.459 39.6815L375.944 45.7498C375.086 46.1176 374.411 46.4547 373.921 46.7612C373.431 47.0676 373.063 47.4661 372.818 47.9564C372.45 48.5694 372.205 49.3662 372.082 50.3469C372.021 51.2664 371.99 52.6762 371.99 54.5763V56.2313ZM429.009 68.7355C424.719 68.7355 421.255 68.4597 418.62 67.9081C415.984 67.3564 413.808 66.3144 412.092 64.782C410.376 63.2496 409.027 60.951 408.046 57.8863C406.698 54.086 406.024 46.9757 406.024 36.5555C406.024 26.9321 406.79 19.9138 408.322 15.5005C409.793 11.2711 412.184 8.29831 415.494 6.58204C418.804 4.86577 423.677 4.00763 430.113 4.00763C432.381 4.00763 435.139 4.19152 438.388 4.55929C441.697 4.92706 444.732 5.38678 447.49 5.93844V16.7877C441.176 16.0522 436.273 15.6844 432.779 15.6844C428.917 15.6844 426.128 16.0828 424.412 16.8797C422.757 17.6765 421.654 19.2089 421.102 21.4768C420.612 23.6834 420.367 27.3918 420.367 32.6019H421.01C421.807 31.4373 423.125 30.4259 424.964 29.5678C426.864 28.6484 429.592 28.1887 433.147 28.1887C437.315 28.1887 440.594 28.679 442.985 29.6597C445.437 30.5792 447.275 32.3874 448.501 35.0844C449.788 37.7201 450.432 41.643 450.432 46.8531C450.432 52.5536 449.85 56.9362 448.685 60.001C447.521 63.0657 445.406 65.303 442.341 66.7128C439.338 68.0613 434.894 68.7355 429.009 68.7355ZM428.458 57.2427C430.91 57.2427 432.656 57.0894 433.698 56.7829C434.802 56.4152 435.568 55.649 435.997 54.4844C436.426 53.3198 436.641 51.3583 436.641 48.6C436.641 45.7804 436.426 43.7883 435.997 42.6237C435.568 41.3978 434.832 40.6316 433.79 40.3251C432.748 39.9574 430.971 39.7735 428.458 39.7735C426.006 39.7735 424.228 39.988 423.125 40.4171C422.083 40.8462 421.378 41.5817 421.01 42.6237C420.704 43.6044 420.551 45.2288 420.551 47.4967C420.551 50.5615 420.765 52.7681 421.194 54.1166C421.685 55.4651 422.451 56.3232 423.493 56.691C424.535 57.0588 426.19 57.2427 428.458 57.2427Z" fill="white"/>
<path d="M152.264 78.6108H159.716C161.206 78.6108 162.333 78.8688 163.097 79.3846C163.881 79.9005 164.397 80.6074 164.645 81.5054C164.893 82.3843 165.018 83.5403 165.018 84.9732C165.018 86.3489 164.893 87.4857 164.645 88.3837C164.397 89.2626 163.881 89.9696 163.097 90.5045C162.333 91.0395 161.196 91.307 159.687 91.307H155.216V98.3286H152.264V78.6108ZM158.713 88.785C159.725 88.785 160.47 88.6703 160.948 88.4411C161.426 88.1927 161.731 87.8201 161.865 87.3233C161.999 86.8075 162.066 86.0241 162.066 84.9732C162.066 83.9224 161.999 83.1486 161.865 82.6518C161.731 82.1359 161.426 81.7634 160.948 81.5341C160.489 81.2857 159.754 81.1615 158.741 81.1615H155.216V88.785H158.713ZM167.784 83.7122H170.306L170.421 86.3489H170.621C170.927 85.2598 171.424 84.5147 172.112 84.1135C172.818 83.6931 173.745 83.483 174.892 83.483V86.2629C173.764 86.2629 172.885 86.454 172.255 86.8361C171.624 87.2182 171.185 87.8105 170.936 88.613C170.688 89.3964 170.564 90.4759 170.564 91.8515V98.3286H167.784V83.7122ZM182.343 98.5579C180.509 98.5579 179.191 98.3477 178.388 97.9274C177.605 97.507 177.099 96.8097 176.869 95.8352C176.64 94.8417 176.525 93.2368 176.525 91.0204C176.525 88.8041 176.64 87.1991 176.869 86.2056C177.099 85.2121 177.605 84.5147 178.388 84.1135C179.191 83.6931 180.509 83.483 182.343 83.483C184.177 83.483 185.486 83.6931 186.27 84.1135C187.072 84.5147 187.588 85.2121 187.817 86.2056C188.046 87.1991 188.161 88.8041 188.161 91.0204C188.161 93.2368 188.046 94.8417 187.817 95.8352C187.588 96.8097 187.072 97.507 186.27 97.9274C185.486 98.3477 184.177 98.5579 182.343 98.5579ZM182.343 96.2078C183.375 96.2078 184.091 96.0932 184.493 95.8639C184.894 95.6346 185.142 95.1952 185.238 94.5455C185.333 93.8959 185.381 92.7209 185.381 91.0204C185.381 89.3008 185.333 88.1258 185.238 87.4953C185.142 86.8457 184.894 86.4062 184.493 86.177C184.091 85.9477 183.375 85.833 182.343 85.833C181.331 85.833 180.624 85.9477 180.222 86.177C179.821 86.4062 179.573 86.8457 179.477 87.4953C179.382 88.1258 179.334 89.3008 179.334 91.0204C179.334 92.7209 179.382 93.8959 179.477 94.5455C179.573 95.1952 179.821 95.6346 180.222 95.8639C180.624 96.0932 181.331 96.2078 182.343 96.2078ZM196.094 104.147C194.317 104.147 192.836 104.051 191.652 103.86V101.682C193.256 101.758 194.537 101.796 195.492 101.796C196.734 101.796 197.632 101.672 198.186 101.424C198.74 101.195 199.093 100.765 199.246 100.134C199.418 99.5228 199.504 98.5197 199.504 97.1249V96.4944H199.332C199.027 97.2013 198.549 97.7077 197.899 98.0134C197.25 98.3 196.438 98.4433 195.463 98.4433C194.24 98.4433 193.295 98.2331 192.626 97.8127C191.976 97.3733 191.508 96.6281 191.222 95.5773C190.954 94.5073 190.82 92.9884 190.82 91.0204C190.82 89.0334 190.964 87.5048 191.25 86.4349C191.537 85.3458 192.015 84.5816 192.683 84.1421C193.352 83.7027 194.288 83.483 195.492 83.483C196.409 83.483 197.212 83.6358 197.899 83.9415C198.587 84.2472 199.103 84.8204 199.447 85.6611H199.619L199.734 83.7122H202.284V96.4084C202.284 98.4528 202.151 100 201.883 101.051C201.616 102.102 201.042 102.876 200.163 103.373C199.285 103.889 197.928 104.147 196.094 104.147ZM196.581 95.9785C197.288 95.9785 197.832 95.8734 198.215 95.6633C198.616 95.434 198.912 95.0805 199.103 94.6029C199.256 94.2207 199.361 93.7526 199.418 93.1985C199.476 92.6445 199.504 91.9089 199.504 90.9918C199.504 90.132 199.476 89.4346 199.418 88.8996C199.38 88.3455 199.285 87.8774 199.132 87.4953C198.941 86.9603 198.644 86.5782 198.243 86.3489C197.842 86.1005 197.288 85.9763 196.581 85.9763C195.645 85.9763 194.976 86.0814 194.575 86.2916C194.193 86.5018 193.935 86.9412 193.801 87.6099C193.686 88.2787 193.629 89.4059 193.629 90.9918C193.629 92.5585 193.696 93.6762 193.83 94.3449C193.963 94.9945 194.221 95.434 194.603 95.6633C195.005 95.8734 195.664 95.9785 196.581 95.9785ZM205.911 83.7122H208.433L208.548 86.3489H208.749C209.054 85.2598 209.551 84.5147 210.239 84.1135C210.946 83.6931 211.872 83.483 213.019 83.483V86.2629C211.892 86.2629 211.013 86.454 210.382 86.8361C209.752 87.2182 209.312 87.8105 209.064 88.613C208.815 89.3964 208.691 90.4759 208.691 91.8515V98.3286H205.911V83.7122ZM218.324 98.5579C216.911 98.5579 215.869 98.2331 215.201 97.5835C214.551 96.9338 214.226 95.8257 214.226 94.259C214.226 93.1317 214.35 92.2528 214.599 91.6223C214.847 90.9918 215.267 90.5332 215.86 90.2466C216.452 89.96 217.283 89.8167 218.353 89.8167C219.328 89.8167 220.732 89.8549 222.566 89.9314V89.1575C222.566 88.0876 222.48 87.3329 222.308 86.8934C222.136 86.454 221.811 86.1674 221.334 86.0337C220.856 85.8999 220.054 85.833 218.926 85.833C218.391 85.833 217.723 85.8617 216.92 85.919C216.118 85.9763 215.497 86.0432 215.057 86.1196V83.8842C216.49 83.6167 218.076 83.483 219.815 83.483C221.401 83.483 222.585 83.6645 223.369 84.0275C224.152 84.3905 224.677 84.9732 224.945 85.7757C225.212 86.5591 225.346 87.7055 225.346 89.2149V98.3286H222.824L222.709 96.4371H222.537C222.174 97.2778 221.62 97.8414 220.875 98.128C220.149 98.4146 219.299 98.5579 218.324 98.5579ZM219.499 96.2365C220.168 96.2365 220.713 96.16 221.133 96.0072C221.553 95.8543 221.878 95.5677 222.108 95.1474C222.413 94.536 222.566 93.638 222.566 92.4534V91.7656H219.041C218.449 91.7656 218.009 91.8229 217.723 91.9375C217.436 92.0331 217.235 92.2432 217.121 92.568C217.006 92.8737 216.949 93.361 216.949 94.0297C216.949 94.6602 217.006 95.1283 217.121 95.434C217.254 95.7397 217.493 95.9499 217.837 96.0645C218.2 96.1791 218.754 96.2365 219.499 96.2365ZM244.75 90.1893C244.75 88.8518 244.693 87.9061 244.578 87.352C244.482 86.7788 244.272 86.4062 243.947 86.2343C243.642 86.0623 243.107 85.9763 242.343 85.9763C241.54 85.9763 240.948 86.1387 240.566 86.4635C240.183 86.7884 239.935 87.2756 239.82 87.9252C239.706 88.5748 239.649 89.5206 239.649 90.7625V98.3286H236.869V90.1893C236.869 88.8327 236.811 87.8774 236.697 87.3233C236.601 86.7692 236.4 86.4062 236.095 86.2343C235.789 86.0623 235.254 85.9763 234.49 85.9763C233.687 85.9763 233.095 86.1483 232.713 86.4922C232.331 86.817 232.082 87.3042 231.968 87.9538C231.853 88.6035 231.796 89.5397 231.796 90.7625V98.3286H229.016V83.7122H231.538L231.652 85.6611H231.853C232.14 84.9541 232.589 84.4192 233.2 84.0561C233.831 83.674 234.671 83.483 235.722 83.483C236.83 83.483 237.661 83.6549 238.216 83.9988C238.77 84.3427 239.161 84.8968 239.391 85.6611H239.563C240.174 84.209 241.492 83.483 243.518 83.483C244.626 83.483 245.466 83.6836 246.04 84.0848C246.632 84.4669 247.024 85.0592 247.215 85.8617C247.425 86.6451 247.53 87.7246 247.53 89.1002V98.3286H244.75V90.1893ZM266.91 90.1893C266.91 88.8518 266.852 87.9061 266.738 87.352C266.642 86.7788 266.432 86.4062 266.107 86.2343C265.801 86.0623 265.266 85.9763 264.502 85.9763C263.7 85.9763 263.107 86.1387 262.725 86.4635C262.343 86.7884 262.095 87.2756 261.98 87.9252C261.866 88.5748 261.808 89.5206 261.808 90.7625V98.3286H259.028V90.1893C259.028 88.8327 258.971 87.8774 258.856 87.3233C258.761 86.7692 258.56 86.4062 258.254 86.2343C257.949 86.0623 257.414 85.9763 256.649 85.9763C255.847 85.9763 255.255 86.1483 254.873 86.4922C254.49 86.817 254.242 87.3042 254.127 87.9538C254.013 88.6035 253.955 89.5397 253.955 90.7625V98.3286H251.175V83.7122H253.698L253.812 85.6611H254.013C254.299 84.9541 254.748 84.4192 255.36 84.0561C255.99 83.674 256.831 83.483 257.882 83.483C258.99 83.483 259.821 83.6549 260.375 83.9988C260.929 84.3427 261.321 84.8968 261.55 85.6611H261.722C262.334 84.209 263.652 83.483 265.677 83.483C266.785 83.483 267.626 83.6836 268.199 84.0848C268.792 84.4669 269.183 85.0592 269.374 85.8617C269.584 86.6451 269.69 87.7246 269.69 89.1002V98.3286H266.91V90.1893ZM273.278 79.8718V77.0345H276.172V79.8718H273.278ZM273.335 98.3286V83.7122H276.115V98.3286H273.335ZM288.162 90.1893C288.162 88.8518 288.095 87.9061 287.962 87.352C287.847 86.7788 287.618 86.4062 287.274 86.2343C286.93 86.0623 286.338 85.9763 285.497 85.9763C284.618 85.9763 283.968 86.1483 283.548 86.4922C283.128 86.8361 282.86 87.3329 282.746 87.9825C282.631 88.6321 282.574 89.5588 282.574 90.7625V98.3286H279.794V83.7122H282.316L282.43 85.6611H282.631C282.937 84.9541 283.414 84.4192 284.064 84.0561C284.714 83.674 285.592 83.483 286.701 83.483C287.904 83.483 288.802 83.6836 289.395 84.0848C290.006 84.4669 290.417 85.0497 290.627 85.833C290.837 86.6164 290.942 87.7055 290.942 89.1002V98.3286H288.162V90.1893ZM299.35 104.147C297.573 104.147 296.092 104.051 294.908 103.86V101.682C296.513 101.758 297.793 101.796 298.748 101.796C299.99 101.796 300.888 101.672 301.442 101.424C301.996 101.195 302.35 100.765 302.503 100.134C302.675 99.5228 302.76 98.5197 302.76 97.1249V96.4944H302.589C302.283 97.2013 301.805 97.7077 301.156 98.0134C300.506 98.3 299.694 98.4433 298.719 98.4433C297.497 98.4433 296.551 98.2331 295.882 97.8127C295.233 97.3733 294.764 96.6281 294.478 95.5773C294.21 94.5073 294.077 92.9884 294.077 91.0204C294.077 89.0334 294.22 87.5048 294.507 86.4349C294.793 85.3458 295.271 84.5816 295.94 84.1421C296.608 83.7027 297.544 83.483 298.748 83.483C299.665 83.483 300.468 83.6358 301.156 83.9415C301.843 84.2472 302.359 84.8204 302.703 85.6611H302.875L302.99 83.7122H305.54V96.4084C305.54 98.4528 305.407 100 305.139 101.051C304.872 102.102 304.299 102.876 303.42 103.373C302.541 103.889 301.184 104.147 299.35 104.147ZM299.837 95.9785C300.544 95.9785 301.089 95.8734 301.471 95.6633C301.872 95.434 302.168 95.0805 302.359 94.6029C302.512 94.2207 302.617 93.7526 302.675 93.1985C302.732 92.6445 302.76 91.9089 302.76 90.9918C302.76 90.132 302.732 89.4346 302.675 88.8996C302.636 88.3455 302.541 87.8774 302.388 87.4953C302.197 86.9603 301.901 86.5782 301.499 86.3489C301.098 86.1005 300.544 85.9763 299.837 85.9763C298.901 85.9763 298.232 86.0814 297.831 86.2916C297.449 86.5018 297.191 86.9412 297.057 87.6099C296.943 88.2787 296.885 89.4059 296.885 90.9918C296.885 92.5585 296.952 93.6762 297.086 94.3449C297.22 94.9945 297.478 95.434 297.86 95.6633C298.261 95.8734 298.92 95.9785 299.837 95.9785ZM325.955 98.1567C325.44 98.2713 324.79 98.3668 324.007 98.4433C323.242 98.5197 322.526 98.5579 321.857 98.5579C319.775 98.5579 318.246 98.2904 317.272 97.7554C316.316 97.2013 315.676 96.246 315.351 94.8895C315.027 93.5138 314.864 91.3739 314.864 88.4697C314.864 85.5847 315.027 83.4543 315.351 82.0786C315.676 80.703 316.316 79.7477 317.272 79.2127C318.246 78.6586 319.775 78.3815 321.857 78.3815C322.545 78.3815 323.261 78.4293 324.007 78.5248C324.771 78.6013 325.392 78.7064 325.87 78.8401V81.1902C324.704 81.0182 323.605 80.9322 322.574 80.9322C321.007 80.9322 319.918 81.0851 319.306 81.3908C318.695 81.6965 318.294 82.3366 318.103 83.311C317.912 84.2854 317.816 86.005 317.816 88.4697C317.816 90.9344 317.912 92.654 318.103 93.6284C318.294 94.6029 318.695 95.2429 319.306 95.5486C319.918 95.8543 321.007 96.0072 322.574 96.0072C323.911 96.0072 325.038 95.9212 325.955 95.7493V98.1567ZM334.16 98.5579C332.325 98.5579 331.007 98.3477 330.205 97.9274C329.421 97.507 328.915 96.8097 328.686 95.8352C328.456 94.8417 328.342 93.2368 328.342 91.0204C328.342 88.8041 328.456 87.1991 328.686 86.2056C328.915 85.2121 329.421 84.5147 330.205 84.1135C331.007 83.6931 332.325 83.483 334.16 83.483C335.994 83.483 337.303 83.6931 338.086 84.1135C338.888 84.5147 339.404 85.2121 339.634 86.2056C339.863 87.1991 339.977 88.8041 339.977 91.0204C339.977 93.2368 339.863 94.8417 339.634 95.8352C339.404 96.8097 338.888 97.507 338.086 97.9274C337.303 98.3477 335.994 98.5579 334.16 98.5579ZM334.16 96.2078C335.191 96.2078 335.908 96.0932 336.309 95.8639C336.71 95.6346 336.959 95.1952 337.054 94.5455C337.15 93.8959 337.197 92.7209 337.197 91.0204C337.197 89.3008 337.15 88.1258 337.054 87.4953C336.959 86.8457 336.71 86.4062 336.309 86.177C335.908 85.9477 335.191 85.833 334.16 85.833C333.147 85.833 332.44 85.9477 332.039 86.177C331.637 86.4062 331.389 86.8457 331.294 87.4953C331.198 88.1258 331.15 89.3008 331.15 91.0204C331.15 92.7209 331.198 93.8959 331.294 94.5455C331.389 95.1952 331.637 95.6346 332.039 95.8639C332.44 96.0932 333.147 96.2078 334.16 96.2078ZM358.887 90.1893C358.887 88.8518 358.829 87.9061 358.715 87.352C358.619 86.7788 358.409 86.4062 358.084 86.2343C357.779 86.0623 357.244 85.9763 356.479 85.9763C355.677 85.9763 355.085 86.1387 354.702 86.4635C354.32 86.7884 354.072 87.2756 353.957 87.9252C353.843 88.5748 353.785 89.5206 353.785 90.7625V98.3286H351.005V90.1893C351.005 88.8327 350.948 87.8774 350.833 87.3233C350.738 86.7692 350.537 86.4062 350.231 86.2343C349.926 86.0623 349.391 85.9763 348.627 85.9763C347.824 85.9763 347.232 86.1483 346.85 86.4922C346.468 86.817 346.219 87.3042 346.105 87.9538C345.99 88.6035 345.933 89.5397 345.933 90.7625V98.3286H343.153V83.7122H345.675L345.789 85.6611H345.99C346.276 84.9541 346.725 84.4192 347.337 84.0561C347.967 83.674 348.808 83.483 349.859 83.483C350.967 83.483 351.798 83.6549 352.352 83.9988C352.906 84.3427 353.298 84.8968 353.527 85.6611H353.699C354.311 84.209 355.629 83.483 357.654 83.483C358.762 83.483 359.603 83.6836 360.176 84.0848C360.769 84.4669 361.16 85.0592 361.351 85.8617C361.562 86.6451 361.667 87.7246 361.667 89.1002V98.3286H358.887V90.1893ZM365.312 83.7122H367.834L367.949 85.6611H368.15C368.474 84.8204 368.981 84.2472 369.669 83.9415C370.356 83.6358 371.168 83.483 372.105 83.483C373.308 83.483 374.235 83.7027 374.885 84.1421C375.553 84.5816 376.031 85.3363 376.318 86.4062C376.604 87.4762 376.747 89.0047 376.747 90.9918C376.747 92.9788 376.604 94.5169 376.318 95.606C376.05 96.6759 375.591 97.4402 374.942 97.8987C374.292 98.3382 373.375 98.5579 372.191 98.5579C371.197 98.5579 370.375 98.4146 369.726 98.128C369.095 97.8223 368.608 97.316 368.264 96.609H368.092V103.946H365.312V83.7122ZM371.016 96.0645C371.933 96.0645 372.582 95.9594 372.964 95.7493C373.366 95.5391 373.633 95.0996 373.767 94.4309C373.901 93.7431 373.967 92.6063 373.967 91.0204C373.967 89.4346 373.901 88.3073 373.767 87.6386C373.633 86.9508 373.366 86.5018 372.964 86.2916C372.582 86.0814 371.933 85.9763 371.016 85.9763C370.289 85.9763 369.716 86.091 369.296 86.3202C368.895 86.5495 368.608 86.9317 368.436 87.4666C368.283 87.8679 368.188 88.336 368.15 88.871C368.111 89.4059 368.092 90.1224 368.092 91.0204C368.092 92.6254 368.188 93.7526 368.379 94.4023C368.57 94.9945 368.866 95.4244 369.267 95.6919C369.688 95.9403 370.27 96.0645 371.016 96.0645ZM390.634 91.9375H382.208C382.208 93.275 382.275 94.2207 382.409 94.7748C382.561 95.3289 382.896 95.711 383.412 95.9212C383.947 96.1314 384.835 96.2365 386.077 96.2365C387.109 96.2365 388.465 96.1409 390.147 95.9499V98.128C389.612 98.2617 388.905 98.3668 388.026 98.4433C387.147 98.5197 386.297 98.5579 385.475 98.5579C383.66 98.5579 382.323 98.3286 381.463 97.8701C380.622 97.3924 380.068 96.6473 379.801 95.6346C379.533 94.622 379.399 93.0935 379.399 91.0491C379.399 89.0429 379.524 87.5335 379.772 86.5209C380.02 85.4891 380.555 84.7249 381.377 84.2281C382.198 83.7313 383.488 83.483 385.246 83.483C386.946 83.483 388.169 83.7313 388.914 84.2281C389.679 84.7058 390.156 85.4414 390.347 86.4349C390.538 87.4093 390.634 88.9378 390.634 91.0204V91.9375ZM385.189 85.8044C384.271 85.8044 383.612 85.9095 383.211 86.1196C382.829 86.3298 382.571 86.7119 382.437 87.266C382.304 87.8201 382.227 88.7277 382.208 89.9887H387.94V89.8454C387.94 88.6226 387.863 87.7341 387.711 87.18C387.558 86.626 387.29 86.2629 386.908 86.091C386.545 85.8999 385.972 85.8044 385.189 85.8044ZM394.796 98.3286V86.0623H392.303V83.7122H394.796V79.4706H397.576V83.7122H400.528V86.0623H397.576V98.3286H394.796ZM402.795 79.8718V77.0345H405.689V79.8718H402.795ZM402.852 98.3286V83.7122H405.632V98.3286H402.852ZM410.428 98.3286V86.0623H407.935V83.7122H410.428V79.4706H413.208V83.7122H416.16V86.0623H413.208V98.3286H410.428ZM418.426 79.8718V77.0345H421.321V79.8718H418.426ZM418.484 98.3286V83.7122H421.264V98.3286H418.484ZM430.244 98.5579C428.41 98.5579 427.092 98.3477 426.289 97.9274C425.506 97.507 424.999 96.8097 424.77 95.8352C424.541 94.8417 424.426 93.2368 424.426 91.0204C424.426 88.8041 424.541 87.1991 424.77 86.2056C424.999 85.2121 425.506 84.5147 426.289 84.1135C427.092 83.6931 428.41 83.483 430.244 83.483C432.078 83.483 433.387 83.6931 434.17 84.1135C434.973 84.5147 435.489 85.2121 435.718 86.2056C435.947 87.1991 436.062 88.8041 436.062 91.0204C436.062 93.2368 435.947 94.8417 435.718 95.8352C435.489 96.8097 434.973 97.507 434.17 97.9274C433.387 98.3477 432.078 98.5579 430.244 98.5579ZM430.244 96.2078C431.276 96.2078 431.992 96.0932 432.394 95.8639C432.795 95.6346 433.043 95.1952 433.139 94.5455C433.234 93.8959 433.282 92.7209 433.282 91.0204C433.282 89.3008 433.234 88.1258 433.139 87.4953C433.043 86.8457 432.795 86.4062 432.394 86.177C431.992 85.9477 431.276 85.833 430.244 85.833C429.231 85.833 428.525 85.9477 428.123 86.177C427.722 86.4062 427.474 86.8457 427.378 87.4953C427.283 88.1258 427.235 89.3008 427.235 91.0204C427.235 92.7209 427.283 93.8959 427.378 94.5455C427.474 95.1952 427.722 95.6346 428.123 95.8639C428.525 96.0932 429.231 96.2078 430.244 96.2078ZM447.606 90.1893C447.606 88.8518 447.539 87.9061 447.405 87.352C447.291 86.7788 447.061 86.4062 446.717 86.2343C446.373 86.0623 445.781 85.9763 444.94 85.9763C444.062 85.9763 443.412 86.1483 442.992 86.4922C442.571 86.8361 442.304 87.3329 442.189 87.9825C442.074 88.6321 442.017 89.5588 442.017 90.7625V98.3286H439.237V83.7122H441.759L441.874 85.6611H442.074C442.38 84.9541 442.858 84.4192 443.507 84.0561C444.157 83.674 445.036 83.483 446.144 83.483C447.348 83.483 448.246 83.6836 448.838 84.0848C449.45 84.4669 449.86 85.0497 450.071 85.833C450.281 86.6164 450.386 87.7055 450.386 89.1002V98.3286H447.606V90.1893Z" fill="white"/>
<path d="M91.9715 69.7078C92.1733 69.6437 92.3898 69.6438 92.5916 69.7078C92.7362 69.779 92.8643 69.8958 92.9858 69.9991C93.3667 70.3235 93.8415 70.7975 94.6344 71.5926L113.801 90.8144C114.075 91.0892 114.259 91.2447 114.449 91.4645C114.829 91.9033 114.919 92.5511 114.984 93.112C115.028 93.4899 114.839 93.858 114.507 94.0587C114.353 94.1373 114.169 94.1517 114 94.1675C113.599 94.2052 113.062 94.2068 112.206 94.2068H99.8919C98.3024 94.2069 97.0152 95.499 97.0151 97.0912C97.0152 98.6832 98.3023 99.9755 99.8919 99.9755H112.215C112.96 99.9755 113.425 99.9766 113.775 100.006C114.106 100.033 114.199 100.078 114.223 100.09C114.409 100.186 114.571 100.35 114.667 100.537C114.71 100.637 114.735 100.772 114.75 100.991C114.774 101.334 114.768 101.789 114.756 102.52C114.75 102.92 114.792 103.401 114.66 103.789C114.562 103.978 114.409 104.131 114.221 104.229C114.068 104.281 113.897 104.289 113.738 104.302C113.24 104.343 112.569 104.345 111.448 104.345H81.6613C81.2058 104.345 80.6499 104.441 80.2258 104.224C79.8731 104.024 79.5888 103.649 79.3084 103.368L71.5294 95.5658C71.2074 95.2429 70.7483 94.9164 70.6002 94.4632C70.422 93.8338 70.5543 93.0634 70.5543 92.4065C70.5543 91.9959 70.4769 91.5372 70.6024 91.1397C70.6844 90.8796 70.9104 90.6727 71.0965 90.4821L89.9293 71.5926C90.7221 70.7975 91.1972 70.3235 91.5781 69.9991C91.8274 69.787 91.9491 69.7189 91.9715 69.7078ZM44.8226 49.9733C45.0241 49.9094 45.2403 49.9095 45.4418 49.9733C45.4647 49.9846 45.587 50.0527 45.8363 50.2649C46.2173 50.5892 46.6922 51.0631 47.4849 51.8581C50.8853 55.2684 54.3018 58.6707 57.7032 62.0756C58.7946 63.168 60.5642 63.1681 61.6556 62.0756C62.7471 60.9829 62.747 59.211 61.6556 58.1183C61.0724 57.5346 61.4841 56.5343 62.3115 56.5342H86.1483C87.2694 56.5342 87.9397 56.5361 88.4377 56.5769C88.597 56.5899 88.7683 56.5995 88.9216 56.65C89.1096 56.7478 89.2613 56.9024 89.36 57.0897C89.4122 57.2431 89.4204 57.4167 89.4335 57.5765C89.4741 58.0761 89.4762 58.7484 89.4762 59.8724V62.7067C89.4762 63.1754 89.5831 63.7777 89.3247 64.201C89.3032 64.2362 89.269 64.2971 88.5009 65.0674L66.9554 86.6754C66.4095 87.2228 65.9392 87.8534 65.5947 88.5749C65.1897 89.4227 64.9675 90.3516 64.9451 91.292C64.9408 91.4711 64.9505 91.6507 64.9421 91.8297C64.9175 92.3442 64.5195 92.7581 64.0151 92.8071L63.3514 92.8381C57.0149 93.1029 50.6343 92.8121 44.223 92.8121C43.7561 92.8121 43.1551 92.9195 42.7334 92.6604C42.6986 92.639 42.6384 92.6049 41.8702 91.8344L35.6246 85.5706C35.303 85.2481 34.846 84.9231 34.6962 84.4714C34.5856 84.078 34.6493 83.6099 34.6493 83.2098V79.0487C34.647 78.5401 34.632 78.0341 34.5499 77.5632C34.0756 74.8432 31.9774 72.7037 29.2827 72.1763L29.0238 72.1312C27.6392 71.9236 26.2125 72.2178 24.8324 72.0088C24.2093 71.8229 23.9122 71.1072 24.2215 70.5322C24.6793 69.9451 25.2529 69.4359 25.7765 68.9107L42.7801 51.8581C43.5728 51.0631 44.0477 50.5892 44.4287 50.2649C44.55 50.1616 44.678 50.0445 44.8226 49.9733ZM100.021 8.19833C100.223 8.13397 100.44 8.13389 100.642 8.19806C100.786 8.26947 100.914 8.38598 101.036 8.48934C101.417 8.81368 101.891 9.28749 102.684 10.0826L132.456 39.9405C132.786 40.2718 133.285 40.6207 133.402 41.1026C133.481 41.4826 133.431 41.9183 133.431 42.3015V53.6083C133.431 54.0654 133.526 54.6232 133.31 55.0487C133.112 55.4027 132.736 55.688 132.456 55.9688L124.072 64.3772C123.511 64.9403 123.111 65.34 122.798 65.6218C122.472 65.9147 122.315 66.0085 122.24 66.0366C121.577 66.2854 120.836 65.9949 120.515 65.3715C120.404 65.142 120.397 64.8729 120.383 64.6225C120.36 64.2016 120.36 63.6362 120.36 62.8404C120.36 61.2946 119.108 60.0425 117.565 60.0424C116.022 60.0424 114.77 61.2946 114.77 62.8404V78.6459C114.77 79.531 115.013 80.8441 114.601 81.6703C114.514 81.8463 114.411 82.0165 114.326 82.1887C114.1 82.347 113.747 82.4881 113.492 82.3219C112.208 81.4845 111.152 80.2006 110.08 79.1254L96.0627 65.0674C95.7407 64.7445 95.2816 64.4183 95.1332 63.9651C95.0229 63.5735 95.0874 63.105 95.0874 62.7067V42.1733C95.0874 41.3584 95.1047 40.5028 94.9038 39.6636C94.7413 38.9847 94.4733 38.3351 94.1093 37.7395C93.6596 37.0036 93.0442 36.4111 92.4696 35.8348L84.7391 28.0818C83.9464 27.2869 83.474 26.8108 83.1506 26.4288C83.0476 26.3071 82.9312 26.1787 82.8602 26.0337C82.7959 25.8304 82.7959 25.6122 82.8602 25.409C82.9599 25.2069 83.1297 25.0379 83.2762 24.8691C83.5868 24.5169 83.9267 24.1941 84.2485 23.8529L97.9791 10.0826C98.7719 9.28746 99.2471 8.81369 99.628 8.48934C99.8753 8.27886 99.997 8.21016 100.021 8.19833ZM31.4603 0.0220414C32.581 0.0220414 33.2513 0.0241668 33.7493 0.0649593C33.9088 0.0780277 34.0795 0.087652 34.233 0.138058C34.421 0.235883 34.5743 0.389495 34.6719 0.578037C34.7237 0.731476 34.7324 0.904586 34.7454 1.06426C34.7861 1.5639 34.7879 2.23621 34.7879 3.36023V35.2837C34.7879 36.099 34.7709 36.9539 34.9717 37.7929C35.1343 38.4718 35.4023 39.1215 35.7662 39.717C36.7477 41.3232 41.5049 43.5352 40.8178 45.7042C40.7471 45.8492 40.6306 45.9772 40.5277 46.0988C40.2913 46.3781 39.9654 46.7185 39.474 47.2149L18.2241 68.5272C17.4313 69.3223 16.9564 69.7961 16.5754 70.1204C16.3279 70.3312 16.2055 70.3998 16.1815 70.4117C15.9793 70.4759 15.7628 70.476 15.5615 70.412C15.4162 70.3399 15.292 70.2233 15.1678 70.1204C14.7869 69.7961 14.3119 69.3222 13.5192 68.5272L0.997174 55.9688C0.674871 55.6456 0.216619 55.3202 0.0682364 54.8665C-0.0410208 54.474 0.0218592 54.0075 0.0218586 53.6083V29.7432C0.0218586 29.2742 -0.0849653 28.6721 0.173691 28.2485C0.195139 28.2134 0.229062 28.1527 0.997174 27.3824L27.3036 0.999741C27.6342 0.66827 27.9826 0.166339 28.4639 0.0502842C28.5035 0.0407577 28.5702 0.0220429 29.6565 0.0220414H31.4603ZM91.2748 0.0220414C91.7416 0.022032 92.3421 -0.0852878 92.7638 0.173777C92.7988 0.195243 92.8599 0.229571 93.6273 0.999187C94.3335 1.7078 95.0023 2.33244 95.5992 3.03765C95.7021 3.15916 95.8176 3.28677 95.8891 3.43111C95.9539 3.63494 95.954 3.85363 95.8894 4.05744C95.8181 4.20208 95.7022 4.3301 95.5992 4.45173C95.2758 4.83377 94.8033 5.30997 94.0105 6.10504L80.7067 19.4476C80.1757 19.9801 79.5332 20.5824 78.9744 21.2221C78.5542 21.7033 78.2483 22.0531 78.019 22.3028C77.8509 22.4859 77.6706 22.7041 77.4368 22.8104C77.2531 22.8938 77.038 22.9078 76.8402 22.9153C75.2664 22.9748 73.6839 22.9236 72.1094 22.9236C70.5665 22.9237 69.3149 24.1758 69.3148 25.7216C69.3148 27.2674 70.5665 28.5195 72.1094 28.5196C73.6495 28.5196 75.1972 28.4704 76.7367 28.5282C76.9341 28.5356 77.157 28.5492 77.3412 28.6334C77.5809 28.7431 77.765 28.9725 77.9367 29.1617C78.1748 29.4241 78.493 29.7926 78.93 30.2983C79.501 30.9593 80.1627 31.5784 80.7067 32.1239L88.5009 39.9405C88.8309 40.2714 89.3285 40.6196 89.4467 41.1004C89.4727 41.2273 89.4717 41.356 89.4721 41.4852L89.4762 47.4428C89.4762 48.5665 89.4741 49.2384 89.4335 49.738C89.4204 49.8979 89.4116 50.0703 89.36 50.2239C89.2623 50.4127 89.1092 50.5664 88.9214 50.6642C88.7678 50.7146 88.5972 50.7245 88.4377 50.7375C87.9396 50.7783 87.2689 50.7805 86.1483 50.7805H55.8506C55.3837 50.7805 54.7827 50.8879 54.361 50.6287C54.3262 50.6073 54.2658 50.5727 53.498 49.8028L44.9921 41.2723C43.914 39.9244 42.591 38.7363 41.3744 37.516C41.0598 37.2005 40.6346 36.8927 40.4636 36.4644L40.4272 36.35C40.4175 36.3094 40.3991 36.2293 40.399 35.1555V3.36023C40.399 2.23661 40.4014 1.564 40.4421 1.06426C40.4551 0.90471 40.4631 0.730655 40.5155 0.577483C40.6132 0.389159 40.7662 0.235939 40.9534 0.138335C41.1068 0.0872449 41.2784 0.0780324 41.4379 0.0649593C41.9359 0.02417 42.6061 0.0220417 43.7267 0.0220414H91.2748ZM95.8869 4.06658C95.884 4.07461 95.8884 4.06053 95.8869 4.06658V4.06658ZM40.5131 0.58219C40.5104 0.587791 40.5138 0.580738 40.5131 0.58219V0.58219Z" fill="white"/>
</svg>
