<svg width="648" height="268" viewBox="0 0 648 268" fill="none" xmlns="http://www.w3.org/2000/svg">
<path d="M469.181 173.56C475.319 173.56 480.59 174.854 484.995 177.442C489.4 180.029 492.578 183.767 494.527 188.655L481.529 194.046C480.374 191.53 478.749 189.697 476.655 188.547C474.561 187.325 472.069 186.714 469.181 186.714C466.365 186.714 463.838 187.397 461.599 188.762C459.361 190.056 457.591 191.889 456.292 194.261C454.992 196.633 454.342 199.473 454.342 202.78C454.342 206.086 454.992 208.962 456.292 211.406C457.591 213.778 459.361 215.646 461.599 217.012C463.838 218.306 466.365 218.953 469.181 218.953C472.358 218.953 474.994 218.27 477.088 216.905C479.182 215.467 480.879 213.526 482.179 211.082L494.852 216.689C492.685 221.289 489.4 224.991 484.995 227.794C480.59 230.598 475.319 232 469.181 232C463.549 232 458.53 230.778 454.125 228.334C449.793 225.818 446.363 222.367 443.835 217.982C441.38 213.526 440.152 208.458 440.152 202.78C440.152 197.101 441.38 192.069 443.835 187.685C446.363 183.3 449.793 179.849 454.125 177.333C458.53 174.818 463.549 173.56 469.181 173.56Z" fill="white"/>
<path d="M541.885 206.985C541.885 210.722 542.788 213.67 544.593 215.826C546.47 217.911 548.853 218.953 551.742 218.953C554.558 218.953 556.941 218.27 558.89 216.905C560.84 215.467 562.321 213.562 563.332 211.19C564.415 208.818 564.956 206.194 564.956 203.319V175.285H579.146V230.275H565.823V223.374H564.956C563.873 225.099 562.465 226.609 560.732 227.903C558.999 229.196 557.049 230.202 554.883 230.921C552.789 231.64 550.515 232 548.06 232C541.272 232 536.18 229.915 532.786 225.746C529.392 221.577 527.695 215.898 527.695 208.71V175.285H541.885V206.985Z" fill="white"/>
<path fill-rule="evenodd" clip-rule="evenodd" d="M604.782 174.207L603.916 181.97H604.782C605.721 180.533 606.948 179.167 608.465 177.873C610.054 176.579 611.931 175.537 614.098 174.746C616.264 173.955 618.683 173.56 621.354 173.56C626.409 173.56 630.923 174.818 634.894 177.333C638.938 179.777 642.115 183.192 644.426 187.576C646.809 191.961 648 197.029 648 202.78C648 208.53 646.809 213.598 644.426 217.982C642.115 222.367 638.938 225.818 634.894 228.334C630.923 230.778 626.409 232 621.354 232C618.683 232 616.264 231.605 614.098 230.814C611.931 230.023 610.054 229.016 608.465 227.794C606.948 226.5 605.721 225.135 604.782 223.697H603.916V230.275H590.592V153.074H604.782V174.207ZM618.864 186.714C616.264 186.714 613.808 187.397 611.497 188.762C609.259 190.056 607.417 191.926 605.973 194.37C604.601 196.742 603.916 199.545 603.916 202.78C603.916 206.014 604.601 208.854 605.973 211.298C607.417 213.67 609.259 215.539 611.497 216.905C613.808 218.27 616.264 218.953 618.864 218.953C621.535 218.953 623.99 218.306 626.229 217.012C628.539 215.646 630.381 213.741 631.753 211.298C633.197 208.854 633.919 206.014 633.919 202.78C633.919 199.473 633.197 196.633 631.753 194.261C630.381 191.889 628.539 190.056 626.229 188.762C623.99 187.397 621.535 186.714 618.864 186.714Z" fill="white"/>
<path d="M324.548 36C378.532 36.0001 422.297 79.5654 422.298 133.303C422.298 187.041 378.533 230.607 324.548 230.607H250.109C240.122 230.607 232.026 222.548 232.026 212.607V211.463C232.009 211.16 232 210.855 232 210.548V126.083C246.709 126.083 258.634 137.954 258.634 152.596V204.095H324.548C344.363 204.095 362.939 196.081 376.545 181.599C388.415 168.965 395.23 152.323 395.643 135.032C396.114 115.157 388.423 96.4136 374.139 82.5681C360.698 69.5404 342.509 62.5163 323.752 62.5163H258.66C243.951 62.5163 232.026 50.6461 232.026 36.004H324.548V36Z" fill="white"/>
<path d="M516.665 230.275H502.475V153.074H516.665V230.275Z" fill="white"/>
<path d="M326.246 140.842C326.246 147.023 331.246 152.063 337.43 152.168C343.794 152.273 349 146.881 349 140.545V139.396H360.495V140.842C360.495 153.417 350.256 163.611 337.623 163.611C324.991 163.611 314.75 153.417 314.75 140.842V139.396H326.246V140.842Z" fill="white"/>
<path fill-rule="evenodd" clip-rule="evenodd" d="M497.56 144.834H484.345V138.257H483.479C482.613 139.694 481.385 141.06 479.796 142.354C478.208 143.576 476.33 144.582 474.164 145.373C471.998 146.164 469.578 146.56 466.907 146.56C461.852 146.56 457.303 145.337 453.259 142.894C449.215 140.378 446.002 136.927 443.619 132.542C441.308 128.158 440.152 123.09 440.152 117.34C440.152 111.589 441.308 106.521 443.619 102.136C446.002 97.7517 449.215 94.3372 453.259 91.8933C457.303 89.3776 461.852 88.1197 466.907 88.1197C469.578 88.1197 471.998 88.5151 474.164 89.3057C476.33 90.0964 478.208 91.1389 479.796 92.4327C481.385 93.7265 482.613 95.0924 483.479 96.53H484.345L483.479 88.7664V67.6338H497.56V144.834ZM469.29 101.274C466.69 101.274 464.235 101.957 461.924 103.322C459.686 104.616 457.844 106.449 456.4 108.821C455.028 111.193 454.342 114.033 454.342 117.34C454.342 120.574 455.028 123.413 456.4 125.857C457.845 128.301 459.686 130.206 461.924 131.572C464.235 132.866 466.69 133.513 469.29 133.513C471.961 133.513 474.416 132.83 476.655 131.465C478.966 130.099 480.807 128.229 482.179 125.857C483.623 123.413 484.345 120.574 484.345 117.34C484.345 114.105 483.623 111.302 482.179 108.929C480.807 106.486 478.966 104.616 476.655 103.322C474.416 101.957 471.961 101.274 469.29 101.274Z" fill="white"/>
<path fill-rule="evenodd" clip-rule="evenodd" d="M534.38 88.1197C540.301 88.1197 545.284 89.3774 549.328 91.8933C553.372 94.4091 556.44 97.788 558.534 102.029C560.628 106.198 561.675 110.835 561.675 115.938C561.675 117.088 561.64 118.094 561.568 118.957C561.495 119.748 561.423 120.323 561.351 120.682H519.92C520.237 122.77 520.832 124.639 521.707 126.288C523.079 128.804 524.921 130.745 527.231 132.111C529.614 133.405 532.25 134.052 535.138 134.052C538.532 134.052 541.384 133.333 543.695 131.896C546.006 130.386 547.811 128.517 549.111 126.288L560.593 131.896C557.993 136.424 554.599 140.018 550.411 142.678C546.222 145.266 541.059 146.56 534.922 146.56C529.362 146.56 524.379 145.301 519.974 142.785C515.641 140.27 512.211 136.82 509.684 132.435C507.229 128.05 506.001 123.054 506.001 117.447C506.001 112.2 507.229 107.348 509.684 102.891C512.139 98.4346 515.497 94.8767 519.757 92.2171C524.018 89.4856 528.892 88.1197 534.38 88.1197ZM534.489 99.657C531.745 99.657 529.217 100.376 526.906 101.813C524.668 103.251 522.898 105.264 521.598 107.852C521.147 108.725 520.776 109.66 520.482 110.655H548.028C547.955 109.433 547.595 108.175 546.945 106.881C546.295 105.587 545.392 104.4 544.237 103.322C543.081 102.244 541.673 101.382 540.013 100.735C538.424 100.016 536.583 99.657 534.489 99.657Z" fill="white"/>
<path d="M281.596 113.357C283.744 110.728 287.623 110.334 290.264 112.473L303.9 123.521C306.928 125.974 306.928 130.582 303.9 133.035L290.268 144.08C287.627 146.218 283.748 145.823 281.6 143.195V143.199L281.245 142.762C279.097 140.133 279.494 136.272 282.134 134.134L289.359 128.28L282.13 122.423C279.489 120.284 279.093 116.422 281.241 113.793L281.596 113.357Z" fill="white"/>
<path d="M592.258 125.642H593.124L607.313 89.8451H623.235L599.623 144.834H585.542L562.145 89.8451H578.285L592.258 125.642Z" fill="white"/>
<path d="M95.2991 0L48.5078 26.4208L48.4572 79.348L95.1979 105.855L141.989 79.4338L142.041 26.5063L95.2991 0ZM99.1023 24.3479C100.081 24.3479 100.885 24.639 101.516 25.2213C102.145 25.8036 102.461 26.4784 102.461 27.2451V77.2817C102.461 77.7758 102.404 78.2049 102.292 78.5671C102.179 78.9292 101.92 79.2204 101.516 79.4389C101.053 79.7145 100.277 79.8509 99.1858 79.8509H90.8497C89.4215 79.8509 88.4487 79.6035 87.9311 79.1093C87.6372 78.8792 87.4614 78.6109 87.4049 78.3028C87.3484 77.9848 87.3214 77.601 87.3214 77.151V57.3271C87.3214 56.6028 87.3484 56.1528 87.4049 55.9767C87.5165 55.5705 87.8038 55.1869 88.2663 54.8245C88.6721 54.4739 89.2461 54.2053 89.9883 54.018C92.1152 53.5236 93.4388 53.1461 93.9578 52.8818C95.1612 52.2458 95.7637 51.0982 95.7637 49.4408V27.2451C95.7637 26.4784 96.0776 25.8036 96.7082 25.2213C97.3375 24.639 98.135 24.3479 99.1023 24.3479Z" fill="white"/>
<path d="M46.8415 80.907L0.0501858 107.327L0 160.255L46.7403 186.761L93.532 160.341L93.5833 107.413L46.8415 80.907ZM33.1593 106.256H63.1839C64.1638 106.256 64.9415 106.279 65.5156 106.321C66.0317 106.421 66.4931 106.645 66.8989 106.997C67.2892 107.403 67.5406 107.788 67.6525 108.151C67.7215 108.557 67.7568 109.095 67.7568 109.764V120.091C67.7568 121.035 67.7215 121.732 67.6525 122.181C67.5393 122.675 67.2252 123.104 66.7091 123.466C66.2057 123.829 65.6061 124.053 64.9091 124.141C64.2247 124.229 63.7425 124.273 63.4639 124.273H57.621C56.6566 124.273 56.0572 124.252 55.8198 124.206C55.3586 124.118 54.8764 123.894 54.3746 123.532C53.8569 123.214 53.4807 122.807 53.243 122.313C52.963 121.864 52.8247 121.347 52.8247 120.765V115.166C52.8247 114.672 52.7395 114.222 52.5714 113.816C52.3324 113.41 51.8701 113.004 51.183 112.597C50.326 112.06 49.0635 111.79 47.3935 111.79H39.8777C38.5016 111.79 37.3578 112.038 36.4469 112.532C35.057 113.3 34.3626 114.404 34.3626 115.841V151.921C34.3626 152.459 34.3894 153.09 34.4461 153.814C34.4461 154.538 34.7615 155.171 35.3934 155.707C36.4301 156.608 37.9233 157.058 39.8722 157.058H54.4463C55.6511 157.058 56.5705 156.987 57.2011 156.844C57.7726 156.756 58.4017 156.466 59.0859 155.971C60.2314 155.115 60.804 154.012 60.804 152.661V147.803C60.804 146.64 61.0617 145.723 61.5791 145.052C62.0261 144.416 62.9675 144.098 64.4056 144.098C65.4945 144.098 66.3261 144.439 66.8989 145.119C67.4008 145.832 67.6525 146.683 67.6525 147.672V157.992C67.6525 158.937 67.6241 159.567 67.569 159.886C67.4558 160.192 67.0851 160.593 66.4559 161.086C65.4888 161.854 64.1724 162.237 62.5068 162.237H31.1852C29.7387 162.115 28.7913 161.826 28.343 161.366C27.8226 160.873 27.5073 160.379 27.3957 159.886C27.2134 159.437 27.1228 158.849 27.1228 158.123V110.373C27.1228 108.804 27.8169 107.656 29.2055 106.932C29.542 106.756 30.1448 106.602 31.0158 106.47C31.8134 106.328 32.5287 106.256 33.1593 106.256Z" fill="white"/>
<path d="M104.027 107.328L144 80.907L97.2086 107.328L97.158 160.255L143.899 186.762L103.976 160.255L104.027 107.328Z" fill="white"/>
<path d="M95.2179 162.053L48.4267 188.473L48.3761 241.401L95.1168 267.907L141.908 241.486L141.959 188.559L95.2179 162.053ZM75.8906 188.743H115.109C116.144 188.743 117.062 188.992 117.86 189.486C118.671 189.983 119.077 190.611 119.077 191.37C119.077 192.142 118.698 192.819 117.94 193.401C117.196 193.986 116.334 194.278 115.352 194.278H107.523C106.653 194.278 106.106 194.306 105.882 194.36C105.475 194.448 104.983 194.674 104.409 195.036C103.552 195.618 103.125 196.492 103.125 197.656V241.618C103.125 242.377 103.007 243.003 102.769 243.498C102.489 244.047 102.063 244.432 101.492 244.651C100.863 244.881 100.004 244.997 98.9153 244.997H92.4859C91.5073 244.997 90.8244 244.947 90.4341 244.85C89.9732 244.804 89.5388 244.58 89.1344 244.173C88.6734 243.779 88.4161 243.355 88.3596 242.904C88.248 242.454 88.193 242.003 88.193 241.552V198.199C88.193 196.892 87.794 195.902 86.9963 195.232C86.5341 194.87 85.9601 194.6 85.2743 194.424C84.5883 194.282 83.7838 194.21 82.8606 194.21H75.7224C74.5741 194.21 73.5743 193.962 72.7202 193.468C71.8521 193.016 71.4192 192.388 71.4192 191.585C71.4192 190.725 71.8801 190.025 72.8049 189.486C73.659 188.992 74.6872 188.743 75.8906 188.743Z" fill="white"/>
</svg>
