<svg width="208" height="214" viewBox="0 0 208 214" fill="none" xmlns="http://www.w3.org/2000/svg">
<path d="M101.158 0C160.164 0.000110706 208 47.9076 208 107.001C208 166.093 160.164 214 101.158 214H19.7937C8.87739 214 0.0283578 205.138 0.0283578 194.206V192.948C0.0102566 192.615 0 192.279 0 191.941V99.0607C16.0775 99.0607 29.1114 112.114 29.1114 128.215V184.846H101.158C122.815 184.846 143.12 176.035 157.991 160.109C170.965 146.216 178.414 127.915 178.866 108.9C179.381 87.0445 170.974 66.4338 155.361 51.2087C140.67 36.8827 120.789 29.1597 100.287 29.1597H29.1398C13.0623 29.1597 0.0283578 16.1056 0.0283578 0.00436915H101.158V0Z" fill="white"/>
<path d="M103.013 115.291C103.013 122.087 108.479 127.629 115.237 127.744C122.194 127.859 127.884 121.93 127.884 114.963V113.7H140.448V115.291C140.448 129.119 129.256 140.327 115.449 140.327C101.641 140.327 90.4485 129.119 90.4483 115.291V113.7H103.013V115.291Z" fill="white"/>
<path d="M54.2092 85.0652C56.5573 82.1746 60.7973 81.7417 63.684 84.0931L78.5882 96.2426C81.8981 98.9399 81.8981 104.007 78.5882 106.705L63.6883 118.85C60.8015 121.201 56.5616 120.767 54.2135 117.876V117.882L53.8264 117.402C51.4783 114.511 51.9114 110.264 54.7982 107.913L62.6947 101.476L54.7938 95.0345C51.9072 92.6831 51.4743 88.4368 53.822 85.5458L54.2092 85.0652Z" fill="white"/>
</svg>
