<?xml version="1.0" encoding="UTF-8" standalone="no"?>
<!-- Created with Inkscape (http://www.inkscape.org/) -->

<svg
   version="1.1"
   id="svg1"
   width="437.66602"
   height="160.51224"
   viewBox="0 0 437.66602 160.51224"
   xmlns="http://www.w3.org/2000/svg"
   xmlns:svg="http://www.w3.org/2000/svg">
  <defs
     id="defs1" />
  <g
     id="g1"
     transform="translate(-6.4999999,-196.71628)">
    <path
       id="path5"
       style="fill:#ffffff"
       d="m 308.18555,196.72266 c -4.57554,-0.0608 -9.08406,0.31242 -12.18555,1.13476 -12.04797,3.19444 -22.12514,11.75412 -25.67188,21.80664 -3.80781,10.79251 -1.99324,23.80301 4.43555,31.81836 5.50827,6.86767 13.17633,10.97264 30.16992,16.14844 11.30145,3.44211 15.97993,5.38062 19.07227,7.89844 l 1.66016,1.35156 3.83984,-11.44922 c 2.11186,-6.29668 3.99476,-11.93313 4.18359,-12.52539 0.37228,-1.16759 -5.82162,-3.69931 -19.63281,-8.02539 -16.77847,-5.25552 -22.33444,-10.72749 -18.04102,-17.76953 2.84002,-4.65817 12.00613,-6.26469 19.57813,-3.43164 4.07608,1.52505 8.45512,5.47771 10.49219,9.4707 l 1.31054,2.57031 2.13477,-1.30078 c 1.17441,-0.71532 4.68606,-2.80389 7.80273,-4.64062 L 343,226.43945 l 1.61523,-5.01757 1.61524,-5.01563 -2.87109,-3.72266 c -5.1823,-6.71723 -13.47224,-12.03766 -22.58985,-14.49804 -3.36577,-0.90825 -8.00845,-1.40211 -12.58398,-1.46289 z m -200.36719,2.4414 c -13.229184,-0.55887 -22.368744,1.43155 -33.050782,7.19336 -15.113695,8.15223 -25.60123,22.53545 -29.107422,39.92383 -1.543177,7.65313 -1.104287,22.16221 0.892578,29.54883 5.792078,21.42552 22.430194,36.98034 45.113282,42.17187 5.65535,1.29436 23.195704,0.88808 29.000004,-0.67187 5.91275,-1.5891 14.59582,-5.70314 19.64843,-9.3086 4.37398,-3.12121 11.18061,-10.12899 13.18555,-13.57421 l 1.16797,-2.00586 -11.04883,-6.39649 c -6.07689,-3.51753 -11.27634,-6.39453 -11.55469,-6.39453 -0.27834,0 -0.92716,0.78523 -1.4414,1.74609 -0.51424,0.96087 -2.26777,2.92206 -3.89844,4.35743 -14.11441,12.424 -39.700215,9.46067 -49.812501,-5.76953 -3.882329,-5.8472 -5.635923,-12.15163 -5.658203,-20.33008 -0.01052,-3.86174 0.342014,-8.51693 0.783203,-10.34571 2.902033,-12.0293 11.508418,-20.7917 23.296875,-23.71875 5.418946,-1.34552 15.456926,-1.08384 20.402346,0.53125 5.30251,1.73172 11.1708,5.66936 13.81836,9.27149 1.16113,1.57978 2.32444,2.88414 2.58398,2.89844 0.5347,0.0295 21.23581,-11.78665 22.07031,-12.59766 0.85255,-0.82855 -5.53536,-8.67284 -10.35156,-12.71094 -11.0276,-9.24601 -21.33269,-13.19709 -36.03906,-13.81836 z m 261.31836,0.15235 -3.85352,11.33398 c -2.11981,6.23333 -7.60087,22.28269 -12.17968,35.66602 -20.8149,60.8395 -23.76954,69.55528 -23.76954,70.09375 0,0.3155 6.57411,0.57226 14.60938,0.57226 h 14.60937 l 2.91797,-9.16601 2.91797,-9.16602 h 22.21485 22.21679 l 2.94727,9.16602 2.94922,9.16601 h 14.64062 c 8.05306,0 14.64258,-0.18844 14.64258,-0.41992 0,-0.23148 -0.93612,-3.14679 -2.08008,-6.47852 -1.14396,-3.33172 -6.06525,-17.76827 -10.9375,-32.08007 -4.87225,-14.31179 -12.35884,-36.22084 -16.63672,-48.6875 -4.27789,-12.46667 -8.31717,-24.31732 -8.97461,-26.33399 l -1.19531,-3.66601 H 386.65625 Z M 6.6660156,200.98242 v 58 58 H 20 33.333984 v -58 -58 H 20 Z m 154.0000044,0 v 12.66797 12.66602 h 15 15 v 45.33398 45.33203 H 204 217.33398 v -45.33203 -45.33398 h 15 15 V 213.65039 200.98242 H 204 Z m 225.99023,29.33985 c 0.28704,0.005 5.94113,17.26795 12.39063,37.82812 l 1.51562,4.83203 h -13.91602 -13.91601 l 0.875,-2.83203 c 4.47898,-14.50579 12.77795,-39.83312 13.05078,-39.82812 z m -100.75977,45.33984 c -0.46345,-0.014 -21.22652,11.83042 -22.03906,12.57227 -0.73318,0.66939 3.00943,7.60127 6.50977,12.05664 6.65073,8.46532 17.94409,14.45331 30.25,16.03906 2.04431,0.26343 5.40174,0.5183 7.46093,0.5664 l 3.74415,0.0859 1.38476,-3.83203 c 5.74403,-15.89013 8.06668,-23.61876 6.95313,-23.13672 -0.63784,0.27612 -4.0682,0.64235 -7.62305,0.8125 -11.57388,0.55398 -19.1079,-3.10443 -24.20313,-11.7539 -1.1,-1.86731 -2.19675,-3.40316 -2.4375,-3.41016 z m -118.0625,59.70508 v 10.85351 10.85352 l 4.61133,-0.33008 4.61328,-0.33008 2.15039,-1.25976 c 1.18301,-0.69275 2.78303,-2.10736 3.55469,-3.14258 l 1.40235,-1.88281 v -3.90039 -3.90235 l -1.40235,-1.88281 c -0.77166,-1.03522 -2.32657,-2.42307 -3.45508,-3.08398 l -2.05078,-1.20118 -4.71289,-0.39648 z m 124.10157,0.0312 -1.71875,1.71875 -1.7168,1.71679 v 1.56836 c 0,2.24429 1.29913,3.73013 5.32812,6.09571 4.15256,2.43811 5.01996,3.58543 4.44532,5.875 l -0.42383,1.68554 -1.99609,0.82618 -1.9961,0.82812 -2.6875,-1.33008 -2.68945,-1.33008 -0.35547,0.57618 c -0.19628,0.31759 0.63199,1.18231 1.8418,1.91992 1.20982,0.73761 3.19809,1.34275 4.41797,1.34375 l 2.21875,0.002 1.94726,-1.94922 c 3.38944,-3.38943 2.44247,-6.34186 -3.02539,-9.42773 -4.30992,-2.43237 -5.19654,-3.40757 -4.91016,-5.39844 l 0.21875,-1.51367 1.78711,-1 1.78907,-1 2.35351,1.12109 2.35156,1.12305 0.35157,-0.56836 c 0.61916,-1.00182 -1.54788,-2.20857 -4.58399,-2.55078 z m 118.19336,0.0215 -2.39258,1 c -1.3162,0.54994 -3.25779,2.13221 -4.31445,3.51758 L 401.5,342.45703 v 3.77149 3.76953 l 1.91992,2.51562 c 1.05568,1.38407 2.85568,2.92579 4,3.42383 1.14432,0.49804 3.27944,0.91192 4.7461,0.91992 l 2.66796,0.0156 2.66602,-1.49219 2.66602,-1.49219 1.5,-2.97265 c 0.825,-1.63451 1.5,-3.74289 1.5,-4.6875 0,-2.40411 -2.65513,-7.33912 -4.78321,-8.88868 l -1.7832,-1.29882 -3.23633,-0.31055 z M 48.5,335.44922 v 7.42187 7.42188 l -0.96875,1.87305 c -0.53271,1.03014 -1.862008,2.24449 -2.955078,2.69726 l -1.988281,0.82227 -1.97461,-0.4336 c -1.0862,-0.23857 -2.531247,-1.04568 -3.210937,-1.79492 L 36.166016,352.09375 35.833984,343.99414 35.5,335.89453 h -0.666016 -0.667968 l -0.191407,6.96875 -0.191406,6.96875 0.779297,1.87695 c 0.42787,1.03298 1.661617,2.62201 2.742188,3.53125 l 1.964843,1.6543 h 3.015625 3.015625 l 2.201172,-2.20312 2.203125,-2.20118 0.441406,-3.63085 c 0.24351,-1.99705 0.348862,-5.70866 0.232422,-8.2461 L 50.166016,336 49.333984,335.72461 Z m 304,0 v 10.7793 10.77734 l 0.83398,-0.27734 0.83204,-0.2793 v -10.2207 -10.22266 l -0.83204,-0.27734 z m 42,0 v 10.7793 10.77734 l 0.83398,-0.27734 0.83204,-0.2793 v -10.2207 -10.22266 l -0.83204,-0.27734 z m -366.666016,0.0137 -1.013672,0.2168 -1.013671,0.21484 -4.089844,8.86328 c -2.19666,4.76069 -4.191622,8.44899 -4.507813,8.34766 -0.0046,-0.002 -0.01286,-0.008 -0.01758,-0.0117 l -0.002,-0.002 c -0.24042,-0.29161 -2.032372,-3.9806 -3.982422,-8.19727 -3.7881597,-8.19125 -4.8211122,-9.75316 -5.9765622,-9.03906 L 6.5,336.30664 v 9.84961 c 0,5.41725 0.1913112,10.04092 0.4257812,10.27539 1.171,1.171 1.5782469,-1.02241 1.6230469,-8.74414 l 0.048828,-8.45898 4.3652349,9 4.365234,9 4.417969,-9 4.419922,-9 0.1875,8.83203 0.185546,8.83398 h 0.646485 0.648437 V 346.17969 Z M 84.5,335.51562 v 1.02344 1.02149 h 3.333984 3.332032 v 9.66797 9.66601 H 91.833984 92.5 v -9.63086 -9.6289 l 3.166016,-0.20313 c 1.74166,-0.11176 3.167968,-0.50442 3.167968,-0.87109 v -0.66602 l -7.167968,-0.18945 z m -28,0.0449 v 10.66797 10.66601 h 0.666016 0.667968 v -10.66601 -10.66797 h -0.667968 z m 16.955078,0 c -1.33136,0 -3.468247,0.49817 -4.748047,1.10547 l -2.326172,1.10351 -1.683593,2.54492 -1.683594,2.54493 v 3.28515 3.2832 l 1.242187,2.12305 c 0.68397,1.16715 2.443487,2.84399 3.910157,3.72656 l 2.667968,1.60547 2.675782,0.006 2.677734,0.006 2.287109,-1.22656 c 2.25639,-1.21011 3.450991,-2.77344 2.119141,-2.77344 -0.37626,0 -1.764064,0.63725 -3.083984,1.41602 l -2.400391,1.41601 -2.375,-0.38672 c -4.67583,-0.75878 -8.228516,-4.69219 -8.228516,-9.11132 v -2.33399 l 1.324219,-2.17383 c 1.64407,-2.69648 5.026198,-4.82122 7.679688,-4.82422 1.10543,-10e-4 3.163375,0.61598 4.572265,1.3711 2.58899,1.3876 3.618318,1.36266 2.736328,-0.0645 -0.75732,-1.22536 -4.706801,-2.64257 -7.363281,-2.64257 z m 43.103512,0 c -1.0333,0 -2.66864,0.62286 -3.63476,1.38281 l -1.75781,1.38086 v 2.16797 2.16992 l 1.5,1.33789 c 0.825,0.73632 2.92212,2.14972 4.66015,3.14062 l 3.16016,1.80274 0.4414,1.75586 0.44141,1.75781 -1.80469,1.55078 c -2.20554,1.89713 -3.42258,1.93948 -6.24804,0.2168 -2.56405,-1.5633 -2.81641,-1.60604 -2.81641,-0.48438 0,0.46507 0.82564,1.35726 1.83398,1.98243 1.00833,0.62517 2.91664,1.14429 4.24219,1.15429 l 2.41016,0.0176 1.68164,-1.32226 c 0.92491,-0.72753 1.87982,-2.11098 2.12109,-3.07227 l 0.4375,-1.74609 -1.0332,-1.57813 c -0.56857,-0.86776 -2.60614,-2.58759 -4.5293,-3.82031 -1.92316,-1.23273 -3.91744,-2.74954 -4.42968,-3.37109 l -0.92969,-1.12891 0.74219,-1.62891 0.74023,-1.6289 1.75977,-0.44141 1.75976,-0.44141 2.26367,1.07813 2.26367,1.08008 v -0.88282 c 0,-1.12346 -2.83626,-2.42968 -5.27539,-2.42968 z m 28.60743,0 v 7.40039 7.39844 l 1.08789,2.29296 c 0.59821,1.26062 1.87386,2.71847 2.83398,3.24024 3.82932,2.08101 9.19993,0.63657 11.06836,-2.97656 l 1.00977,-1.95508 v -7.69922 -7.70117 h -0.60938 -0.61133 l -0.22265,8.05664 -0.22266,8.05664 -2.17773,1.94336 -2.17579,1.94336 h -1.84179 c -2.47703,0 -4.74718,-1.69918 -5.875,-4.39844 L 146.5,348.9375 v -6.6875 -6.68945 h -0.66602 z m 44.66796,0 v 10.66797 10.66601 h 5.66602 5.66602 v -1 -1 h -5 -5 v -4 -4 h 4.72265 4.72266 l -0.27539,-0.83398 -0.27539,-0.83203 -4.44727,-0.19727 -4.44726,-0.19727 v -3.60742 -3.60742 l 4.78125,-0.19531 4.77929,-0.19531 0.27539,-0.83399 0.27539,-0.83398 h -5.72265 z m 16.66602,0 v 10.66797 10.66601 h 0.64844 0.64648 l 0.18555,-9.08594 0.18555,-9.08593 6.54687,9.08593 c 3.6,4.99728 6.82435,9.08594 7.16602,9.08594 H 222.5 v -10.66601 -10.66797 h -0.66602 -0.66796 v 8.66797 c 0,4.65494 -0.2143,8.47367 -0.48047,8.63867 -0.002,10e-4 -0.008,0.003 -0.01,0.004 h -0.002 c -0.003,8e-5 -0.006,8e-5 -0.008,0 -0.275,-0.0123 -3.28557,-3.91163 -6.69141,-8.66601 -3.40584,-4.75439 -6.48149,-8.64453 -6.83399,-8.64453 z m 21.33398,0 v 1 1 h 3 3 v 9.66797 9.66601 h 0.66602 0.66602 v -9.63086 -9.6289 l 3.11523,-0.20313 3.11523,-0.20312 0.27344,-0.83399 0.27539,-0.83398 h -7.05664 z m 32.92969,0 c -0.43296,0 -0.95116,0.42612 -1.15039,0.94531 -3.15747,8.22822 -7.11328,19.22976 -7.11328,19.7832 0,1.68018 1.65825,-0.0372 2.51367,-2.60351 l 0.93164,-2.79102 h 4.63477 4.63476 l 1.28516,3 c 0.70727,1.65 1.61881,3 2.02539,3 0.93914,0 0.98819,0.17146 -3.33398,-11.5 l -3.64063,-9.83398 z m 17.12891,0 c -1.0333,0 -2.6706,0.62286 -3.63672,1.38281 L 272.5,338.32422 v 2.16797 2.16992 l 1.5,1.35937 c 0.825,0.74763 2.92619,2.17932 4.66992,3.18164 l 3.17188,1.82227 0.42968,1.71484 0.42969,1.7168 -1.80469,1.55078 c -2.20554,1.89713 -3.42063,1.93948 -6.24609,0.2168 -2.60968,-1.59112 -2.81641,-1.61649 -2.81641,-0.35156 0,0.53829 0.8237,1.42562 1.83204,1.97265 1.00833,0.54703 2.97357,1.00679 4.36523,1.02149 l 2.5293,0.0273 1.63672,-1.63672 c 1.55758,-1.55757 1.9649,-2.79722 1.65429,-5.02929 -0.21882,-1.5725 -1.97488,-3.21063 -5.77148,-5.38282 -1.92957,-1.10399 -3.69066,-2.58323 -3.91406,-3.28711 -0.57172,-1.80135 0.73421,-3.9057 2.73632,-4.4082 l 1.69532,-0.42578 1.78515,0.89648 c 0.9813,0.49311 2.00821,1.00664 2.28321,1.14063 0.275,0.13399 0.5,-0.18338 0.5,-0.70508 0,-1.18088 -2.7778,-2.49609 -5.27344,-2.49609 z m 37.33789,0.0547 c -1.88807,-0.0498 -3.8728,0.37937 -5.8125,1.31836 l -2.83789,1.375 -1.45508,3.00391 -1.45508,3.00586 0.3418,3.03125 c 0.38708,3.43419 1.94098,5.86195 5.14844,8.04492 l 2.20312,1.5 h 2.97852 2.97656 l 2.51172,-1.41211 2.51367,-1.41211 1.48828,-2.65039 1.49024,-2.64844 -0.28907,-3.46484 -0.28711,-3.46484 -1.5625,-2.11524 c -1.93138,-2.61234 -4.80634,-4.02829 -7.95312,-4.11133 z m 25.18359,0.0293 c -5.13636,-0.17748 -9.11195,2.75374 -10.66797,7.94727 l -0.79101,2.63672 0.77148,2.57617 c 1.00266,3.34658 3.14539,6.02299 5.7168,7.14258 1.13109,0.49248 3.21606,0.90747 4.63281,0.92187 l 2.57617,0.0254 2.58985,-1.45703 c 2.4649,-1.38535 3.3497,-2.54297 1.9414,-2.54297 -0.35781,0 -1.63346,0.59812 -2.83398,1.33008 -2.8203,1.71954 -5.37563,1.68894 -8.56836,-0.10547 l -2.56641,-1.44336 -1.02343,-2.1582 c -1.36429,-2.87503 -1.29385,-6.14295 0.19336,-8.91602 l 1.21875,-2.27148 2.27148,-1.2168 c 2.96679,-1.59111 5.75811,-1.53806 8.54688,0.16211 l 2.25585,1.375 0.61133,-0.61328 0.61328,-0.61133 -1.82422,-1.19531 c -1.00292,-0.65715 -3.08201,-1.33629 -4.62109,-1.50977 -0.35236,-0.0397 -0.70054,-0.0643 -1.04297,-0.0762 z m 88.22266,0.23828 c -0.0863,0.002 -0.16339,0.0284 -0.23438,0.0723 -0.67222,0.41546 -0.77948,19.83967 -0.11328,20.50586 1.09278,1.09279 1.51302,-1.11798 1.68946,-8.88867 l 0.1875,-8.29883 6.31445,8.81836 c 3.47252,4.84912 6.62252,8.71176 7,8.58593 l 0.68555,-0.22851 v -10.11133 -10.10937 l -0.66602,-0.16797 -0.66602,-0.16602 -0.33398,8.66602 -0.33398,8.66797 -5.28321,-7.33399 c -5.69781,-7.90766 -7.41146,-10.03144 -8.24609,-10.01172 z M 126.5,335.8945 l -0.16602,0.66602 -0.16796,0.66797 3.16796,0.20312 3.16602,0.20313 v 9.6289 9.63086 h 0.66602 0.66796 v -9.63086 -9.6289 L 137,337.43164 140.16602,337.22852 140,336.56055 l -0.16602,-0.66602 h -6.66796 z m 239.07227,0 -3.85743,10.33399 c -2.12235,5.68333 -3.86509,10.4083 -3.87109,10.5 -0.006,0.0917 0.30607,0.16601 0.69336,0.16601 0.38728,0 1.30816,-1.36372 2.04492,-3.0293 l 1.33789,-3.02734 4.73633,0.19531 4.73633,0.19532 0.94336,2.83203 c 0.94995,2.85659 2.19081,3.82765 2.13281,1.66797 -0.0172,-0.64167 -1.6213,-5.36667 -3.56445,-10.5 l -3.53321,-9.33399 h -0.89843 z m 10.26171,0 -0.16796,0.66602 -0.16602,0.66797 3.16602,0.20312 3.16796,0.20313 v 9.6289 9.63086 h 0.66602 0.66602 v -9.63086 -9.6289 l 3.16796,-0.20313 3.16602,-0.20312 -0.16602,-0.66797 -0.16796,-0.66602 H 382.5 Z m -60.93164,1 h 2.06641 l 2.26563,1.51367 c 1.24588,0.83231 2.80593,2.55601 3.46679,3.83203 l 1.20117,2.32032 -0.30664,2.52539 c -0.36047,2.95365 -1.79275,5.36065 -4.08008,6.85937 -0.89758,0.58812 -2.76728,1.20745 -4.15624,1.37696 l -2.5254,0.30859 -2.2871,-1.20117 c -1.25726,-0.66087 -2.88871,-2.02632 -3.62696,-3.03321 l -1.34375,-1.83007 v -3.33789 -3.33985 l 1.34375,-1.83008 c 1.67772,-2.28823 5.27003,-4.16306 7.98242,-4.16406 z m 97.23243,0 c 2.225,0 4.90233,1.37832 6.96093,3.58203 l 1.59571,1.70703 0.27539,3.18946 0.27343,3.1875 -1.36328,2.17383 c -0.7504,1.19501 -2.34209,2.76748 -3.53711,3.49609 -3.91217,2.38528 -9.18355,1.03698 -11.86914,-3.03711 l -1.29492,-1.96484 -0.002,-3 -0.002,-3 1.25195,-2.05469 c 1.38857,-2.27709 4.99749,-4.2793 7.71094,-4.2793 z m -242.96875,0.66602 h 3.73046 3.73047 l 1.84571,1.08984 c 2.49229,1.47223 4.20898,4.5635 4.20898,7.57813 v 2.48632 l -1.22852,2.07813 c -0.67554,1.14362 -2.1859,2.53391 -3.35742,3.08984 -1.17153,0.55592 -3.65971,1.01172 -5.52929,1.01172 h -3.40039 v -8.66601 z m 197.29296,1.33398 h 0.002 0.002 c 0.6458,0 4.02313,9.79133 3.54297,10.27149 -0.51586,0.51586 -7.50586,0.51584 -7.50586,0 0,-1.03345 3.53571,-10.19989 3.95898,-10.27149 z m -105.86523,0.40039 c 0.66118,-0.0399 3.19002,6.1573 3.42969,8.51953 l 0.14258,1.41407 -3.35743,0.19531 c -1.84742,0.10814 -3.54037,0.0163 -3.76171,-0.20508 -0.40966,-0.40967 2.56221,-8.8613 3.47656,-9.88672 0.0204,-0.0229 0.0434,-0.0355 0.0703,-0.0371 z" />
  </g>
</svg>
