<?xml version="1.0" encoding="UTF-8" standalone="no"?>
<!-- Created with Inkscape (http://www.inkscape.org/) -->

<svg
   version="1.1"
   id="svg1"
   width="573.23871"
   height="573.73657"
   viewBox="0 0 573.23872 573.73655"
   xmlns="http://www.w3.org/2000/svg"
   xmlns:svg="http://www.w3.org/2000/svg">
  <defs
     id="defs1" />
  <g
     id="g1"
     transform="translate(-994.72001,-434.55394)">
    <path
       style="fill:#ffffff"
       d="m 1193.6062,1007.9609 c -20.3094,-1.161 -40.9914,-5.4032 -59.9311,-12.2925 -15.8642,-5.77061 -32.804,-14.42953 -46.4751,-23.7561 -43.72,-29.82628 -74.5805,-74.3094 -86.8532,-125.19233 -2.33042,-9.66208 -3.88121,-18.84699 -5.05172,-29.92 -0.53916,-5.10044 -0.57505,-11.0627 -0.57505,-95.52 v -90.07999 l 0.73987,-6.72 c 0.87601,-7.95653 2.45266,-17.6022 4.03629,-24.69329 13.89711,-62.22733 55.33961,-114.94151 112.66381,-143.30622 26.1452,-12.93693 53.0214,-19.95267 82.72,-21.59312 8.0488,-0.44458 164.7512,-0.44458 172.8,0 38.4303,2.12275 74.0984,13.86233 105.7084,34.7922 23.5966,15.62402 44.3383,36.42419 59.9115,60.08043 17.1074,25.98692 28.1863,55.08102 32.6016,85.61498 2.0897,14.45111 1.9079,-3.04773 2.0174,194.22501 0.091,163.34519 0.055,178.92129 -0.4161,181.05993 -0.2834,1.28696 -1.1742,3.65618 -1.9795,5.26493 -2.5992,5.19197 -7.5141,9.37137 -13.3633,11.36337 l -2.56,0.8718 h -38.24 -38.24 l -2.56,-0.8718 c -7.0448,-2.3992 -12.5108,-7.86746 -14.962,-14.96824 l -0.718,-2.08 -0.1744,-176.15999 c -0.1635,-165.05964 -0.2095,-176.40196 -0.7305,-179.99999 -1.7764,-12.26841 -4.8668,-22.29602 -9.9571,-32.30903 -9.6297,-18.94208 -24.6738,-33.86062 -43.705,-43.34003 -10.9173,-5.43788 -21.447,-8.51662 -33.5044,-9.79622 -6.7944,-0.72106 -164.3055,-0.7048 -171.2177,0.0177 -44.3567,4.63629 -80.0304,38.83451 -86.6099,83.0276 -0.2751,1.848 -0.6444,5.21691 -0.8206,7.48647 -0.4478,5.76807 -0.4349,158.91035 0.014,164.68955 2.2723,29.26108 16.7142,55.18078 40.3228,72.36959 10.9138,7.94605 24.4483,13.92618 37.4369,16.54115 9.3052,1.87343 4.4919,1.74606 73.426,1.94291 70.9693,0.20266 64.4916,-0.0346 69.76,2.55499 5.7526,2.82756 9.9279,7.83226 11.8927,14.25533 0.5558,1.81688 0.5873,3.97366 0.5873,40.15999 v 38.24 l -0.8718,2.56 c -2.2115,6.49399 -7.1967,11.80532 -13.3682,14.24272 -4.1858,1.6532 -1.895,1.6008 -67.7881,1.5502 -33.7325,-0.026 -63.4171,-0.1663 -65.9657,-0.312 z"
       id="path1" />
  </g>
</svg>
