<svg width="90" height="90" viewBox="0 0 90 90" fill="none" xmlns="http://www.w3.org/2000/svg">
<mask id="mask0_368_128" style="mask-type:alpha" maskUnits="userSpaceOnUse" x="0" y="0" width="90" height="90">
<rect width="90" height="90" fill="#D9D9D9"/>
</mask>
<g mask="url(#mask0_368_128)">
<path d="M21.1874 37.5927L28.4999 40.6865C29.3749 38.9365 30.2812 37.249 31.2187 35.624C32.1562 33.999 33.1874 32.374 34.3124 30.749L29.0624 29.7177L21.1874 37.5927ZM34.4999 45.374L45.1874 55.9677C47.8124 54.9677 50.6249 53.4365 53.6249 51.374C56.6249 49.3115 59.4374 46.9677 62.0624 44.3427C66.4374 39.9677 69.8593 35.1084 72.3281 29.7646C74.7968 24.4209 75.8749 19.499 75.5624 14.999C71.0624 14.6865 66.1249 15.7646 60.7499 18.2334C55.3749 20.7021 50.4999 24.124 46.1249 28.499C43.4999 31.124 41.1562 33.9365 39.0937 36.9365C37.0312 39.9365 35.4999 42.749 34.4999 45.374ZM51.1874 39.2802C49.7499 37.8427 49.0312 36.0771 49.0312 33.9834C49.0312 31.8896 49.7499 30.124 51.1874 28.6865C52.6249 27.249 54.4062 26.5302 56.5312 26.5302C58.6562 26.5302 60.4374 27.249 61.8749 28.6865C63.3124 30.124 64.0312 31.8896 64.0312 33.9834C64.0312 36.0771 63.3124 37.8427 61.8749 39.2802C60.4374 40.7177 58.6562 41.4365 56.5312 41.4365C54.4062 41.4365 52.6249 40.7177 51.1874 39.2802ZM52.9687 69.374L60.8437 61.499L59.8124 56.249C58.1874 57.374 56.5624 58.3896 54.9374 59.2959C53.3124 60.2021 51.6249 61.0927 49.8749 61.9677L52.9687 69.374ZM82.3124 8.15524C83.4999 15.7177 82.7656 23.0771 80.1093 30.2334C77.4531 37.3896 72.8749 44.2177 66.3749 50.7177L68.2499 59.999C68.4999 61.249 68.4374 62.4677 68.0624 63.6552C67.6874 64.8427 67.0624 65.874 66.1874 66.749L50.4374 82.499L42.5624 64.0302L26.5312 47.999L8.06244 40.124L23.7187 24.374C24.5937 23.499 25.6406 22.874 26.8593 22.499C28.0781 22.124 29.3124 22.0615 30.5624 22.3115L39.8437 24.1865C46.3437 17.6865 53.1562 13.0927 60.2812 10.4052C67.4062 7.71774 74.7499 6.96774 82.3124 8.15524ZM14.7187 59.9052C16.9062 57.7177 19.5781 56.6084 22.7343 56.5771C25.8906 56.5459 28.5624 57.624 30.7499 59.8115C32.9374 61.999 34.0156 64.6709 33.9843 67.8271C33.9531 70.9834 32.8437 73.6552 30.6562 75.8427C29.0937 77.4052 26.4843 78.749 22.8281 79.874C19.1718 80.999 14.1249 81.999 7.68744 82.874C8.56244 76.4365 9.56244 71.3896 10.6874 67.7334C11.8124 64.0771 13.1562 61.4677 14.7187 59.9052ZM20.0624 65.1552C19.4374 65.7802 18.8124 66.9209 18.1874 68.5771C17.5624 70.2334 17.1249 71.9052 16.8749 73.5927C18.5624 73.3427 20.2343 72.9209 21.8906 72.3271C23.5468 71.7334 24.6874 71.124 25.3124 70.499C26.0624 69.749 26.4687 68.8427 26.5312 67.7802C26.5937 66.7177 26.2499 65.8115 25.4999 65.0615C24.7499 64.3115 23.8437 63.9521 22.7812 63.9834C21.7187 64.0146 20.8124 64.4052 20.0624 65.1552Z" fill="#0038E1"/>
</g>
</svg>
