<svg width="129" height="76" viewBox="0 0 129 76" fill="none" xmlns="http://www.w3.org/2000/svg">
<mask id="mask0_22_12367" style="mask-type:luminance" maskUnits="userSpaceOnUse" x="0" y="8" width="129" height="60">
<path d="M128.329 8.1181H0.388672V67.5391H128.329V8.1181Z" fill="white"/>
</mask>
<g mask="url(#mask0_22_12367)">
<path d="M56.1134 36.0059H49.8637C50.9626 30.5833 52.0577 25.1907 53.1532 19.7985C53.0989 19.7476 53.0412 19.6967 52.9869 19.6458C52.9192 19.7814 52.8785 19.9443 52.7836 20.053C50.169 23.0325 47.5443 26.0053 44.9332 28.9849C44.7603 29.1816 44.5909 29.2732 44.3193 29.2697C43.1562 29.253 41.9897 29.2496 40.8266 29.2697C40.5045 29.2766 40.3589 29.1646 40.223 28.8865C38.8293 25.951 37.4188 23.0257 36.0149 20.097C35.9435 19.9478 35.8588 19.8053 35.7198 19.544C35.5503 20.3211 35.3977 20.9727 35.2655 21.6309C34.3159 26.297 33.3734 30.9634 32.4272 35.6329C32.3865 35.8399 32.3592 36.0332 32.0508 36.0298C30.1348 36.0162 28.2154 36.023 26.2994 36.0196C26.2588 36.0196 26.2181 36.0028 26.1129 35.9755C27.9305 26.8875 29.7481 17.8032 31.576 8.67113C31.8642 8.67113 32.1423 8.67113 32.4238 8.67113C33.6173 8.67113 34.8111 8.68449 36.0047 8.66089C36.3234 8.65407 36.4761 8.75926 36.6117 9.04101C38.7412 13.4626 40.8809 17.8811 43.0172 22.2996C43.1087 22.4861 43.2037 22.6695 43.3294 22.9103C43.8616 22.3132 44.3501 21.7668 44.8382 21.2135C48.4328 17.1481 52.0307 13.0828 55.6184 9.0069C55.832 8.76609 56.0423 8.65065 56.3747 8.65407C57.9515 8.67454 59.5283 8.66089 61.1051 8.66089H61.5867C59.7623 17.7861 57.9481 26.8741 56.1237 35.996L56.1134 36.0059Z" fill="white"/>
<path d="M79.8743 8.1355C81.6646 8.13863 84.3707 8.72914 86.7649 10.3955C89.1588 12.0618 90.6406 14.3727 91.0511 17.2369C91.9769 23.7322 89.6776 28.9988 84.6251 33.0744C82.136 35.0836 79.213 36.1558 76.0458 36.4884C73.3127 36.777 70.6234 36.5359 68.0836 35.4026C64.5195 33.8145 62.2882 31.0757 61.8103 27.2037C60.9929 20.5897 63.4346 15.2618 68.7381 11.2948C71.695 9.08567 75.1132 8.13863 79.8743 8.1355ZM78.1483 13.996C77.131 13.9519 76.0151 14.1657 74.9404 14.5424C70.1793 16.2085 67.4291 21.0409 68.0666 25.6562C68.3176 27.4752 69.2195 28.9175 70.8506 29.8134C72.8174 30.8926 74.9199 30.9773 77.0494 30.4548C82.5022 29.1177 85.4593 23.7592 84.8759 19.256C84.6419 17.4336 83.8009 15.9541 82.1835 14.9834C80.9797 14.2607 79.6639 13.9892 78.1448 13.996H78.1483Z" fill="white"/>
<path d="M3.26758 27.4479H9.16118C9.16118 27.6378 9.16456 27.8178 9.16118 27.9943C9.11711 29.8708 9.90042 30.9736 11.718 31.364C13.5017 31.7441 15.2549 31.6017 16.8418 30.587C17.7947 29.9794 18.2763 29.0835 18.2661 27.9366C18.2593 26.9796 17.7947 26.2907 17.0114 25.802C15.9466 25.1367 14.7496 24.8416 13.5424 24.5803C11.8435 24.2104 10.1954 23.7115 8.70338 22.7886C6.99772 21.7367 5.78712 20.2977 5.57687 18.2581C5.27507 15.316 6.13978 12.7538 8.42194 10.7719C9.99876 9.40096 11.8842 8.69502 13.9222 8.37261C16.3875 7.98594 18.8426 7.98253 21.2468 8.75955C23.3832 9.45185 25.055 10.704 25.9094 12.859C26.4046 14.1146 26.4757 15.4247 26.3165 16.7547C26.2758 17.0975 26.0484 17.0296 25.8519 17.0296C24.1768 17.033 22.5016 17.0296 20.8229 17.0296C20.7958 17.0296 20.7653 17.0296 20.7382 17.0296C20.433 17.0637 20.3516 16.921 20.3651 16.6293C20.3821 16.2628 20.3957 15.8827 20.3244 15.5264C20.1278 14.549 19.5479 13.8362 18.6154 13.5073C16.8045 12.8727 15.0141 12.9472 13.3118 13.8806C12.3589 14.4031 11.8096 15.2242 11.7112 16.3407C11.6163 17.4165 12.0707 18.1734 12.9591 18.7161C14.1053 19.4152 15.3973 19.697 16.6757 20.0024C18.6323 20.474 20.5109 21.1257 22.1183 22.3982C24.1495 24.0069 24.8651 26.121 24.4682 28.6357C23.8546 32.5109 21.4367 34.7814 17.8354 35.8911C15.065 36.7463 12.2233 36.831 9.37822 36.2507C7.81494 35.9317 6.37038 35.3344 5.16655 34.2418C3.46086 32.6909 2.92848 30.7192 3.10481 28.4964C3.12517 28.242 3.16924 27.9909 3.20654 27.7362C3.2201 27.6412 3.24723 27.5463 3.27097 27.4377L3.26758 27.4479Z" fill="white"/>
<path d="M122.7 9.18398C122.143 10.891 121.608 12.5468 121.069 14.1995C118.63 21.6755 116.189 29.1514 113.764 36.6308C113.662 36.943 113.534 37.045 113.208 37.0416C111.645 37.0246 110.085 37.0348 108.522 37.0348H108.057C108.101 36.8514 108.125 36.7158 108.166 36.5867C111.089 27.5837 114.012 18.5842 116.928 9.58088C117.023 9.28235 117.145 9.14986 117.484 9.15668C119.088 9.17715 120.692 9.16351 122.296 9.16692C122.408 9.16692 122.52 9.17715 122.7 9.18739V9.18398ZM109.081 36.2643C109.288 36.2746 109.44 36.2848 109.59 36.2882C110.556 36.2882 111.523 36.2643 112.486 36.3019C112.933 36.3186 113.123 36.1762 113.262 35.7486C115.999 27.3088 118.752 18.8759 121.499 10.4395C121.55 10.2834 121.591 10.1239 121.652 9.9067C120.414 9.9067 119.237 9.92376 118.06 9.89646C117.708 9.88964 117.579 10.0119 117.474 10.3343C114.761 18.7061 112.038 27.0779 109.318 35.4501C109.237 35.7011 109.166 35.959 109.074 36.2677L109.081 36.2643Z" fill="white"/>
<path d="M108.81 26.1446C107.928 27.5292 107.077 28.8697 106.199 30.2475C106.053 30.1625 105.921 30.0914 105.792 30.0132C102.218 27.7802 98.6403 25.5473 95.0728 23.3009C94.9576 23.2296 94.8524 23.0431 94.849 22.9072C94.8288 22.069 94.8288 21.2309 94.849 20.3924C94.849 20.2534 94.9508 20.0601 95.0659 19.9887C98.7284 17.6812 102.397 15.3837 106.066 13.0862C106.1 13.0626 106.141 13.0489 106.236 13.0015C107.08 14.3386 107.925 15.6754 108.8 17.06C106.362 18.5634 103.92 20.0669 101.39 21.6243C103.903 23.1548 106.341 24.6412 108.81 26.148V26.1446ZM106.002 13.9923C105.883 14.0568 105.805 14.0907 105.738 14.1347C102.435 16.2116 99.1284 18.2851 95.8358 20.3756C95.6934 20.4672 95.578 20.7049 95.5646 20.8812C95.5274 21.3767 95.5646 21.8757 95.5476 22.3709C95.5407 22.6254 95.6255 22.7784 95.8495 22.9174C99.0369 24.9093 102.218 26.9151 105.402 28.9138C105.578 29.0258 105.761 29.1276 105.968 29.253C106.585 28.2792 107.179 27.3393 107.789 26.3789C105.181 24.7839 102.625 23.2227 100.014 21.6312C102.649 20.0023 105.209 18.4176 107.782 16.8226C107.165 15.8417 106.585 14.9189 106.002 13.9923Z" fill="white"/>
<path d="M100.689 40.163C100.482 41.1576 100.285 42.1211 100.075 43.1392C99.9426 43.0374 99.8612 42.9865 99.7933 42.922C97.4944 40.7129 94.6865 39.773 91.5702 39.6439C90.4241 39.5964 89.2744 39.6948 88.1249 39.7084C86.9652 39.7221 85.7952 39.6169 84.6423 39.7286C80.919 40.0817 77.7279 41.6156 75.0795 44.2659C74.988 44.3575 74.8896 44.4391 74.7031 44.6085C75.0119 43.0511 75.2934 41.6258 75.5882 40.1429C75.361 40.1429 75.195 40.1429 75.0252 40.1429C70.2235 40.1429 65.4221 40.136 60.6237 40.136C58.606 40.136 56.5882 40.1429 54.5742 40.1394C54.3402 40.1394 54.1773 40.163 54.123 40.4482C53.3024 44.5781 52.4851 48.708 51.6409 52.8345C51.3424 54.2905 51.0405 55.753 50.6134 57.1717C50.1929 58.5662 49.3554 59.7032 48.0532 60.4498C47.7649 60.6127 47.5241 60.6093 47.341 60.3682C47.063 60.0017 46.7511 59.6284 46.5916 59.2076C46.1881 58.1184 46.3169 56.9883 46.5339 55.882C47.4664 51.1548 48.4262 46.431 49.3755 41.7037C49.4773 41.1982 49.5689 40.6924 49.6672 40.1596C49.5012 40.1528 49.4028 40.1429 49.3045 40.1429C42.6581 40.1429 36.0081 40.1429 29.3617 40.1528C29.1718 40.1528 28.9276 40.2751 28.7954 40.4209C26.0623 43.4855 23.3426 46.5635 20.6265 49.6448C20.5112 49.777 20.4502 49.9604 20.362 50.1199C20.1246 49.8347 20.0534 49.6991 19.9856 49.5598C18.5274 46.5464 17.0625 43.533 15.6146 40.5162C15.4755 40.2276 15.3161 40.136 15.0008 40.1394C12.0743 40.1528 9.14788 40.1528 6.2214 40.1394C5.8891 40.1394 5.7331 40.1972 5.66191 40.5705C5.09559 43.4923 4.49876 46.4108 3.91212 49.3292C2.93212 54.2225 1.95551 59.1127 0.978878 64.0062C0.785603 64.9769 0.588916 65.9472 0.38208 66.9722C0.561793 66.996 0.673698 67.0196 0.78222 67.0196C4.27495 67.0196 7.77113 67.0196 11.2639 67.0265C11.5453 67.0265 11.664 66.9247 11.7149 66.6498C12.0811 64.7562 12.4575 62.8659 12.8373 60.9758C12.9797 60.2664 13.1323 59.5573 13.2781 58.848C13.3155 58.8446 13.3493 58.8411 13.3866 58.8343C13.6172 59.3162 13.858 59.7913 14.075 60.28C14.1768 60.5075 14.309 60.5854 14.5566 60.5854C17.327 60.5754 20.0975 60.5854 22.8647 60.5686C23.0444 60.5686 23.2647 60.4566 23.3969 60.3241C23.7497 59.9747 24.065 59.5843 24.3974 59.211C24.4278 59.2281 24.4548 59.2452 24.4855 59.2619C23.9735 61.8241 23.4614 64.3898 22.9426 66.9858C23.1325 66.9992 23.2545 67.0196 23.3801 67.0196C26.8456 67.0196 30.3113 67.0162 33.7768 67.0299C34.1296 67.0299 34.2346 66.884 34.2957 66.5784C34.601 64.9936 34.9197 63.4089 35.2385 61.8241C35.2555 61.7394 35.2996 61.6612 35.357 61.512C35.4079 61.6408 35.4318 61.6919 35.4486 61.7428C36.0692 63.497 37.1138 64.9291 38.6837 65.9506C40.7726 67.3116 43.1227 67.5763 45.5336 67.532C46.1574 67.522 46.7883 67.3659 47.3987 67.4268C48.7176 67.5593 50.03 67.5863 51.3458 67.4134C54.4249 67.0128 57.0292 65.7266 59.0535 63.3344C59.2841 63.0595 59.5115 62.7811 59.7387 62.5028C59.7589 62.5164 59.7827 62.5267 59.8029 62.5403C59.5146 64.0062 59.2266 65.4721 58.9315 66.9653C59.1078 66.9892 59.2198 67.0162 59.3281 67.0162C62.8346 67.0162 66.3444 67.0162 69.8505 67.0231C70.132 67.0231 70.2338 66.9179 70.2881 66.6395C70.5798 65.1091 70.8951 63.582 71.2035 62.0516C71.2308 61.9123 71.2783 61.7767 71.336 61.5663C71.4276 61.7224 71.4716 61.7903 71.5123 61.8648C72.6549 63.9417 74.3233 65.4519 76.4835 66.4089C78.518 67.3082 80.6577 67.6474 82.8756 67.5152C83.4147 67.4845 83.9506 67.4234 84.4897 67.4268C85.5783 67.4302 86.6735 67.522 87.7587 67.4811C89.9254 67.4032 91.9838 66.8397 93.9169 65.8523C97.908 63.816 100.526 60.5786 102.099 56.4353C102.126 56.3639 102.123 56.2823 102.14 56.184H101.682C98.2029 56.184 94.7203 56.1908 91.2412 56.174C90.8853 56.174 90.6851 56.2758 90.502 56.5812C89.3016 58.5696 87.589 59.9306 85.3713 60.6229C85.1237 60.7008 84.7982 60.6906 84.5576 60.5956C83.1503 60.0392 82.2314 59.0006 81.7734 57.5686C81.3327 56.1874 81.4345 54.786 81.7734 53.4048C82.601 50.0724 84.5676 47.7172 87.8264 46.5293C88.1078 46.4276 88.5115 46.4617 88.7964 46.5802C90.4272 47.2592 91.4041 48.4874 91.6853 50.2419C91.743 50.5984 91.8653 50.7443 92.2517 50.734C93.3878 50.7101 94.5239 50.7238 95.6597 50.7238C97.9316 50.7238 100.204 50.7135 102.476 50.7306C102.883 50.7306 103.052 50.6288 102.988 50.208C102.906 49.6752 102.879 49.1322 102.771 48.6062C102.632 47.9173 102.435 47.2421 102.265 46.5703H107.556C106.192 53.398 104.843 60.1578 103.486 66.9517C103.666 66.979 103.775 67.0094 103.883 67.0094C107.389 67.0094 110.899 67.0094 114.405 67.0162C114.684 67.0162 114.792 66.9213 114.85 66.6361C116.141 60.1171 117.45 53.5982 118.736 47.0758C118.821 46.6448 118.973 46.5327 119.39 46.5327C121.777 46.5396 124.161 46.5126 126.549 46.516C126.898 46.516 127.071 46.4549 127.135 46.0543C127.311 44.9921 127.559 43.9401 127.773 42.8848C127.956 41.9855 128.129 41.0828 128.312 40.1528H100.668L100.689 40.163ZM33.994 41.6801C32.8104 47.5847 31.6269 53.4896 30.4435 59.3944C30.0128 61.5458 29.5787 63.7009 29.1582 65.8557C29.1141 66.0865 29.0294 66.1644 28.8022 66.161C27.2831 66.1542 25.7638 66.1576 24.2413 66.1542C24.1736 66.1542 24.1057 66.1306 23.9903 66.1101C25.1028 60.6297 26.215 55.1661 27.3238 49.7023C27.2999 49.6889 27.2763 49.6752 27.2524 49.6616C27.1069 49.8279 26.961 49.9942 26.8152 50.1606C24.1125 53.2317 21.4031 56.2994 18.7072 59.3774C18.48 59.6352 18.2528 59.7507 17.9069 59.7438C17.0117 59.7202 16.1164 59.7202 15.2212 59.7438C14.8821 59.7541 14.7261 59.6284 14.5837 59.3265C13.1221 56.2519 11.6437 53.1842 10.172 50.1165C10.1109 49.9908 10.0431 49.8652 9.87694 49.7295C8.75791 55.1863 7.64225 60.6431 6.51982 66.1272H1.44685C1.58927 65.3908 1.72153 64.6746 1.86735 63.9588C2.99317 58.3288 4.11898 52.6989 5.24818 47.069C5.62799 45.1789 6.00777 43.2885 6.37741 41.395C6.43845 41.076 6.56391 40.9503 6.9064 40.9571C7.95761 40.981 9.00885 40.9776 10.0601 40.9571C10.3754 40.9503 10.5348 41.0657 10.6704 41.3475C12.7559 45.681 14.855 50.0079 16.9506 54.3379C17.0184 54.477 17.0897 54.6129 17.2321 54.898C17.3643 54.7044 17.4423 54.5552 17.5542 54.4295C21.342 50.1367 25.14 45.8507 28.9142 41.5442C29.2838 41.12 29.65 40.9301 30.2164 40.9537C31.3354 40.9981 32.4613 40.9674 33.5835 40.9674H34.1023C34.0617 41.2423 34.0415 41.4629 33.9974 41.6767L33.994 41.6801ZM59.5385 43.5159C58.728 47.6018 57.9143 51.691 57.1003 55.7768C56.6664 57.9521 55.9778 60.0256 54.6996 61.8682C52.9971 64.3184 50.6811 65.8386 47.7547 66.3987C45.3912 66.8499 43.0411 66.8465 40.749 66.0118C38.1106 65.0479 36.5676 63.134 36.0149 60.4023C35.6419 58.5662 35.9336 56.7608 36.2964 54.9555C37.2019 50.4693 38.1003 45.9798 38.9888 41.4899C39.0636 41.1132 39.1821 40.9472 39.6129 40.9571C40.9761 40.9912 42.3391 40.9708 43.7024 40.9708C43.8551 40.9708 44.0077 40.9844 44.2213 40.9946C44.0686 41.7819 43.9296 42.5285 43.7803 43.2717C42.9461 47.4423 42.0986 51.6097 41.2778 55.7837C41.0677 56.8459 41.0066 57.9217 41.2337 59.0006C41.5391 60.443 42.3732 61.3761 43.8144 61.7428C46.3982 62.401 48.9653 61.5017 50.4505 59.4112C51.1695 58.4002 51.6136 57.2632 51.8579 56.0586C52.7532 51.6842 53.6246 47.3032 54.5062 42.9254C54.6182 42.369 54.7232 41.8123 54.8522 41.2593C54.8792 41.1507 55.0114 40.9878 55.0962 40.9878C56.7105 40.9708 58.3279 40.9742 60.0267 40.9742C59.8504 41.8803 59.6946 42.6948 59.5317 43.5125L59.5385 43.5159ZM69.2503 45.4842C68.328 50.1097 67.3989 54.7385 66.4766 59.3637C66.0458 61.5188 65.6185 63.6702 65.1915 65.8252C65.154 66.0152 65.1133 66.1678 64.8557 66.1644C63.2789 66.1508 61.7019 66.1542 60.1285 66.1508C60.1015 66.1508 60.0776 66.1306 59.9963 66.0999C60.1626 65.2416 60.3286 64.3693 60.5015 63.5004C61.4545 58.7496 62.4106 53.9954 63.3637 49.2442C63.8859 46.6311 64.4045 44.0217 64.9166 41.4086C64.9777 41.0999 65.0931 40.9605 65.4423 40.964C66.8632 40.9844 68.2839 40.9708 69.7015 40.9742C69.8269 40.9742 69.9523 40.9912 70.1388 41.0046C69.8337 42.5419 69.542 44.0149 69.2503 45.4842ZM92.5604 49.8416C92.5263 49.7566 92.4788 49.6582 92.4484 49.5564C91.7567 47.069 90.0306 45.7117 87.5654 45.3585C82.3838 44.6119 77.6637 48.043 76.5378 53.2894C76.1918 54.908 76.063 56.5303 76.6802 58.1116C77.5414 60.3241 79.1827 61.6069 81.5328 61.8446C85.5851 62.2552 88.7421 60.6636 91.0752 57.3582C91.1667 57.2294 91.3532 57.0901 91.4957 57.0901C93.0995 57.0733 94.707 57.0798 96.3108 57.0833C96.3514 57.0833 96.3921 57.1003 96.5109 57.1307C96.2701 57.6126 96.06 58.0877 95.809 58.5392C93.5879 62.5503 90.3053 65.2006 85.8188 66.2662C83.0417 66.9247 80.2679 66.8806 77.5653 65.8963C74.3133 64.7156 72.2447 62.4249 71.3969 59.0584C70.8305 56.8151 70.99 54.579 71.5666 52.3628C72.6856 48.0396 75.0321 44.5918 78.9624 42.3926C82.6144 40.3498 86.5413 39.844 90.5597 41.076C94.3032 42.2263 96.7279 44.7308 97.5487 48.6469C97.63 49.0304 97.6604 49.4242 97.7181 49.8484H92.5672L92.5604 49.8416ZM122.456 43.1901C122.32 43.8722 122.167 44.5511 122.049 45.2332C121.994 45.5556 121.862 45.6775 121.52 45.6741C119.092 45.6608 116.66 45.6741 114.232 45.6608C113.89 45.6608 113.748 45.7421 113.676 46.1051C112.384 52.6685 111.072 59.2281 109.763 65.7877C109.726 65.9813 109.705 66.1644 109.414 66.1644C107.85 66.1508 106.291 66.1576 104.727 66.1542C104.687 66.1542 104.646 66.134 104.554 66.1067C105.911 59.2995 107.264 52.5223 108.631 45.6775H100.461C100.618 44.8766 100.753 44.1437 100.899 43.4175C101.031 42.7491 101.184 42.0873 101.299 41.4188C101.353 41.1067 101.465 40.9674 101.818 40.9674C108.691 40.9776 115.568 40.9742 122.442 40.9776C122.567 40.9776 122.69 40.9947 122.876 41.008C122.73 41.7614 122.595 42.481 122.452 43.1969L122.456 43.1901Z" fill="white"/>
</g>
</svg>
